<?xml version="1.0" encoding="UTF-8"?><svg xmlns="http://www.w3.org/2000/svg" xmlns:xlink="http://www.w3.org/1999/xlink" height="1149.1" preserveAspectRatio="xMidYMid meet" version="1.0" viewBox="-3.9 0.0 1527.0 1149.1" width="1527.0" zoomAndPan="magnify"><g id="Illustration"><g><g id="change1_1"><path d="M0.4,835.8H1497c0,0,26.1-128.1-76.7-222.6s-26.4-98.2-142-215.8c-115.6-117.6-264.4-155.2-430-167.7 S580.1,61.7,346.1,89.3S240.5,389.2,138,434.1s-36.5,163.8-74.9,216.4S-3.9,761.4,0.4,835.8z" fill="#f1dbce" opacity=".5"/></g><g id="change2_3"><path d="M1298.8 811.7L1298.8 787.9 1272.4 787.9 1272.4 764.1 1224.9 764.1 1224.9 756.7 260.9 756.7 260.9 764.1 139.4 764.1 139.4 787.9 112.9 787.9 112.9 811.7 86.6 811.7 86.6 835.5 1325.1 835.5 1325.1 811.7z" fill="#fd871b"/></g><g id="change2_4"><path d="M668,910.5h140.5c0,0-23.8-18.3-43.7-15.2c-19.9,3.1-21,15.6-37.3,10.5C711.1,900.6,693.4,895.3,668,910.5z" fill="#fd871b" opacity=".4"/></g><g id="change3_2"><path d="M935.9,1064.5H795.4c0,0,23.8-18.3,43.7-15.2c19.9,3.1,21,15.6,37.3,10.5 C892.8,1054.7,910.5,1049.3,935.9,1064.5z" fill="#fcc03e" opacity=".4"/></g><g id="change2_5"><path d="M762.7,1021.8h-88.5c0,0,15-11.5,27.5-9.6c12.6,1.9,13.2,9.8,23.5,6.6S746.7,1012.2,762.7,1021.8z" fill="#fd871b" opacity=".4"/></g><g id="change3_3"><path d="M1289,902.2h85.3c0,0-14.4-12.6-26.6-10.5s-12.7,10.7-22.7,7.2C1315.2,895.4,1304.4,891.7,1289,902.2z" fill="#fcc03e" opacity=".4"/></g><g id="change2_6"><path d="M106.8,804.2l23.5-14.5c9.1-5.6,11.8-17.7,5.9-26.7l-6.6-9.9c-1.6-2.5-0.9-5.9,1.6-7.4l0,0 c5.4-3.4,7-10.6,3.5-15.9l-9.1-13.7c-1.6-2.5-0.9-5.9,1.6-7.4l0,0c2.5-1.6,3.3-4.9,1.6-7.4l-22.4-33.9l-22.4,33.9 c-1.6,2.5-0.9,5.9,1.6,7.4h0c2.5,1.6,3.3,4.9,1.6,7.4l-9.1,13.7c-3.5,5.3-1.9,12.5,3.5,15.9h0c2.5,1.6,3.3,4.9,1.6,7.4l-6.6,9.9 c-5.9,9-3.2,21,5.9,26.7l23.5,14.5l0,0.2l0.1-0.1l0.1,0.1L106.8,804.2z" fill="#fd871b"/></g><g id="change4_1"><path d="M106.6,832.2c-0.6,0-1-0.4-1-1V685.7c0-0.6,0.4-1,1-1s1,0.4,1,1v145.5C107.6,831.8,107.2,832.2,106.6,832.2z" fill="#141623"/></g><g id="change4_2"><path d="M106.5,715.9c-0.3,0-0.5-0.1-0.7-0.3l-11.9-11.9c-0.4-0.4-0.4-1,0-1.4s1-0.4,1.4,0l11.9,11.9 c0.4,0.4,0.4,1,0,1.4C107,715.8,106.8,715.9,106.5,715.9z" fill="#141623"/></g><g id="change4_3"><path d="M106.5,773.7c-0.3,0-0.5-0.1-0.7-0.3l-19.1-19.1c-0.4-0.4-0.4-1,0-1.4s1-0.4,1.4,0l19.1,19.1 c0.4,0.4,0.4,1,0,1.4C107,773.6,106.8,773.7,106.5,773.7z" fill="#141623"/></g><g id="change4_4"><path d="M106.5,749.9c-0.3,0-0.5-0.1-0.7-0.3c-0.4-0.4-0.4-1,0-1.4l19.1-19.1c0.4-0.4,1-0.4,1.4,0s0.4,1,0,1.4 l-19.1,19.1C107,749.8,106.8,749.9,106.5,749.9z" fill="#141623"/></g><g id="change4_5"><path d="M100.6,710c-0.4,0-0.8-0.3-1-0.7l-2.5-7.8c-0.2-0.5,0.1-1.1,0.6-1.3c0.5-0.2,1.1,0.1,1.3,0.6l2.5,7.8 c0.2,0.5-0.1,1.1-0.6,1.3C100.8,709.9,100.7,710,100.6,710z" fill="#141623"/></g><g id="change4_6"><path d="M114.3,742.1c-0.3,0-0.5-0.1-0.7-0.3c-0.4-0.4-0.4-1,0-1.4l3.5-3.5l2.4-10.1c0.1-0.5,0.7-0.9,1.2-0.7 c0.5,0.1,0.9,0.7,0.7,1.2l-2.5,10.3c0,0.2-0.1,0.3-0.3,0.5l-3.6,3.7C114.8,742,114.6,742.1,114.3,742.1z" fill="#141623"/></g><g id="change4_7"><path d="M96.7,763.9h-7.6c-0.6,0-1-0.4-1-1s0.4-1,1-1h6.2l-3.6-9.3c-0.2-0.5,0.1-1.1,0.6-1.3c0.5-0.2,1.1,0.1,1.3,0.6 l4.2,10.7c0.1,0.3,0.1,0.7-0.1,0.9C97.3,763.7,97,763.9,96.7,763.9z" fill="#141623"/></g><g id="change3_4"><path d="M153.9,797.5l29.4-18.1c11.4-7,14.7-22.1,7.4-33.3l-8.2-12.4c-2.1-3.1-1.1-7.3,2-9.3h0 c6.8-4.2,8.8-13.2,4.4-19.8l-11.3-17.1c-2.1-3.1-1.1-7.3,2-9.3l0,0c3.2-2,4.1-6.1,2-9.3l-27.9-42.3L125.8,669 c-2.1,3.1-1.1,7.3,2,9.3h0c3.2,2,4.1,6.1,2,9.3l-11.3,17.1c-4.4,6.7-2.4,15.6,4.4,19.8h0c3.2,2,4.1,6.1,2,9.3l-8.2,12.4 c-7.4,11.2-4,26.2,7.4,33.3l29.4,18.1l0,0.2l0.2-0.1l0.2,0.1L153.9,797.5z" fill="#fcc03e"/></g><g id="change4_8"><path d="M153.8,832.2c-0.6,0-1-0.4-1-1V649.6c0-0.6,0.4-1,1-1s1,0.4,1,1v181.6C154.8,831.8,154.3,832.2,153.8,832.2z" fill="#141623"/></g><g id="change4_9"><path d="M153.6,687c-0.3,0-0.5-0.1-0.7-0.3l-14.8-14.8c-0.4-0.4-0.4-1,0-1.4s1-0.4,1.4,0l14.8,14.8 c0.4,0.4,0.4,1,0,1.4C154.1,686.9,153.9,687,153.6,687z" fill="#141623"/></g><g id="change4_10"><path d="M153.6,759.2c-0.3,0-0.5-0.1-0.7-0.3l-23.8-23.8c-0.4-0.4-0.4-1,0-1.4s1-0.4,1.4,0l23.8,23.8 c0.4,0.4,0.4,1,0,1.4C154.1,759.1,153.9,759.2,153.6,759.2z" fill="#141623"/></g><g id="change4_11"><path d="M153.6,729.4c-0.3,0-0.5-0.1-0.7-0.3c-0.4-0.4-0.4-1,0-1.4l23.8-23.8c0.4-0.4,1-0.4,1.4,0s0.4,1,0,1.4 l-23.8,23.8C154.1,729.3,153.9,729.4,153.6,729.4z" fill="#141623"/></g><g id="change4_12"><path d="M146.2,679.6c-0.4,0-0.8-0.3-1-0.7l-3.1-9.7c-0.2-0.5,0.1-1.1,0.6-1.3c0.5-0.2,1.1,0.1,1.3,0.6l3.1,9.7 c0.2,0.5-0.1,1.1-0.6,1.3C146.4,679.6,146.3,679.6,146.2,679.6z" fill="#141623"/></g><g id="change4_13"><path d="M163.4,719.8c-0.3,0-0.5-0.1-0.7-0.3c-0.4-0.4-0.4-1,0-1.4l4.4-4.5l3-12.6c0.1-0.5,0.7-0.9,1.2-0.7 c0.5,0.1,0.9,0.7,0.7,1.2l-3.1,12.9c0,0.2-0.1,0.3-0.3,0.5l-4.6,4.7C163.9,719.7,163.6,719.8,163.4,719.8z" fill="#141623"/></g><g id="change4_14"><path d="M141.3,746.9h-9.5c-0.6,0-1-0.4-1-1s0.4-1,1-1h8l-4.7-12c-0.2-0.5,0.1-1.1,0.6-1.3c0.5-0.2,1.1,0.1,1.3,0.6 l5.2,13.4c0.1,0.3,0.1,0.7-0.1,0.9C142,746.8,141.6,746.9,141.3,746.9z" fill="#141623"/></g><g id="change4_15"><path d="M1194.5,685.8c-0.5,0-0.9-0.3-1-0.8l-3.2-13.5c-0.1-0.5,0.2-1.1,0.7-1.2c0.5-0.1,1.1,0.2,1.2,0.7l3.2,13.5 c0.1,0.5-0.2,1.1-0.7,1.2C1194.6,685.8,1194.6,685.8,1194.5,685.8z" fill="#141623"/></g><g id="change2_7"><path d="M1259.9,573.7h-49.8c-6.3,0-11.4-5.1-11.4-11.4v-23.4c0-6.3,5.1-11.4,11.4-11.4h49.8 c6.3,0,11.4,5.1,11.4,11.4v23.4C1271.4,568.6,1266.3,573.7,1259.9,573.7z" fill="#fd871b"/></g><g id="change2_8"><path d="M1347.5,747.9l-81-7.5c-10.3-1-18.6-10-18.6-20.3v-38c0-10.3,8.3-17.8,18.6-16.9l81,7.5 c10.3,1,18.6,10,18.6,20.3v38C1366.1,741.3,1357.8,748.9,1347.5,747.9z" fill="#fd871b"/></g><g id="change2_9"><path d="M1288.6,586.3l-107,10.1c-5.6,0.5-10.2-3.6-10.2-9.2v-27c0-5.6,4.5-10.6,10.2-11.1l107-10.1 c5.6-0.5,10.2,3.6,10.2,9.2v27C1298.7,580.8,1294.2,585.7,1288.6,586.3z" fill="#fd871b"/></g><g id="change2_10"><path d="M1317.9,693l-160.1,15.2c-10.1,1-19.3-7.5-19.3-17.7v-68.3c0-9.1,7.4-16,16.5-15.3l160.1,11.8 c9.1,0.7,16.5,8.6,16.5,17.8v41.3C1331.7,685.8,1325.8,692.3,1317.9,693z" fill="#fd871b"/></g><g id="change4_16"><path d="M1235.1,824.1c-0.6,0-1-0.4-1-1V562.8c0-0.6,0.4-1,1-1s1,0.4,1,1v260.4 C1236.1,823.7,1235.6,824.1,1235.1,824.1z" fill="#141623"/></g><g id="change4_17"><path d="M1235.1,605.1c-13.5,0-26.4-5.8-35.4-15.8l-1.6-1.8c-0.4-0.4-0.3-1,0.1-1.4c0.4-0.4,1-0.3,1.4,0.1l1.6,1.8 c8.6,9.6,21,15.2,33.9,15.2c0.6,0,1,0.4,1,1S1235.6,605.1,1235.1,605.1z" fill="#141623"/></g><g id="change4_18"><path d="M1239.9,579.1h-4.9c-0.6,0-1-0.4-1-1s0.4-1,1-1h4.9c8.5,0,16.2-5.4,19.1-13.4l1.3-3.5 c0.2-0.5,0.8-0.8,1.3-0.6c0.5,0.2,0.8,0.8,0.6,1.3l-1.3,3.5C1257.7,573.1,1249.3,579.1,1239.9,579.1z" fill="#141623"/></g><g id="change4_19"><path d="M1235.1,709.9c-0.1,0-0.3,0-0.4-0.1l-75.4-34.5c-0.5-0.2-0.7-0.8-0.5-1.3s0.8-0.7,1.3-0.5l75.4,34.5 c0.5,0.2,0.7,0.8,0.5,1.3C1235.8,709.7,1235.4,709.9,1235.1,709.9z" fill="#141623"/></g><g id="change4_20"><path d="M1235.1,659.5c-0.4,0-0.8-0.2-0.9-0.6c-0.2-0.5,0-1.1,0.6-1.3l45.7-18.5c0.5-0.2,1.1,0,1.3,0.6 c0.2,0.5,0,1.1-0.6,1.3l-45.7,18.5C1235.3,659.4,1235.2,659.5,1235.1,659.5z" fill="#141623"/></g><g id="change4_21"><path d="M1235.1,769.2c-0.5,0-0.9-0.4-1-0.9c-0.1-0.5,0.3-1,0.9-1.1l52.8-5.5c7-0.7,13.3-4.5,17.3-10.2l12.3-17.9 c0.3-0.5,0.9-0.6,1.4-0.3c0.5,0.3,0.6,0.9,0.3,1.4l-12.3,17.9c-4.3,6.3-11.1,10.3-18.7,11.1l-52.8,5.5 C1235.1,769.2,1235.1,769.2,1235.1,769.2z" fill="#141623"/></g><g id="change4_22"><path d="M1279.5,764.7c-0.1,0-0.1,0-0.2,0c-0.5-0.1-0.9-0.7-0.8-1.2l6.4-28.1c0.1-0.5,0.7-0.9,1.2-0.8 c0.5,0.1,0.9,0.7,0.8,1.2l-6.4,28.1C1280.3,764.3,1279.9,764.7,1279.5,764.7z" fill="#141623"/></g><g id="change4_23"><path d="M1282.6,749c-0.3,0-0.7-0.2-0.9-0.5l-6-9.7c-0.3-0.5-0.1-1.1,0.3-1.4c0.5-0.3,1.1-0.1,1.4,0.3l6,9.7 c0.3,0.5,0.1,1.1-0.3,1.4C1283,749,1282.8,749,1282.6,749z" fill="#141623"/></g><g id="change2_11"><path d="M1215.5,754.6l-49.6,8c-6.3,1-11.4-3.3-11.4-9.5v-23.3c0-6.3,5.1-12.2,11.4-13.2l49.6-8 c6.3-1,11.4,3.3,11.4,9.5v23.3C1226.9,747.6,1221.8,753.5,1215.5,754.6z" fill="#fd871b"/></g><g id="change4_24"><path d="M1366.1,693v38c0,10.3-8.3,17.8-18.6,16.9l-81-7.5c-10.3-1-18.6-10-18.6-20.3v-38c0-10.3,8.3-17.8,18.6-16.9 l81,7.5C1357.8,673.7,1366.1,682.8,1366.1,693z M1215.5,708.5l-49.6,8c-6.3,1-11.4,6.9-11.4,13.2V753c0,6.3,5.1,10.6,11.4,9.5 l49.6-8c6.3-1,11.4-6.9,11.4-13.2v-23.3C1226.9,711.8,1221.8,707.5,1215.5,708.5z" fill="#141623" opacity=".1"/></g><g id="change4_25"><path d="M1235.1,788.2c-0.1,0-0.2,0-0.3,0l-43.4-11.7c-3.9-1.1-7.2-3.8-9-7.4l-7.9-16.4c-0.2-0.5,0-1.1,0.5-1.3 c0.5-0.2,1.1,0,1.3,0.5l7.9,16.4c1.5,3.1,4.3,5.5,7.7,6.4l43.4,11.7c0.5,0.1,0.8,0.7,0.7,1.2 C1235.9,787.9,1235.5,788.2,1235.1,788.2z" fill="#141623"/></g><g id="change4_26"><path d="M1210.2,781.4c-0.4,0-0.8-0.2-0.9-0.6l-11.6-29.8c-0.2-0.5,0.1-1.1,0.6-1.3c0.5-0.2,1.1,0.1,1.3,0.6 l11.6,29.8c0.2,0.5-0.1,1.1-0.6,1.3C1210.5,781.4,1210.4,781.4,1210.2,781.4z" fill="#141623"/></g><g id="change4_27"><path d="M1188.3,688.6c-0.4,0-0.8-0.3-1-0.7l-6-22.2c-0.1-0.5,0.2-1.1,0.7-1.2c0.5-0.2,1.1,0.2,1.2,0.7l6,22.2 c0.1,0.5-0.2,1.1-0.7,1.2C1188.5,688.5,1188.4,688.6,1188.3,688.6z" fill="#141623"/></g><g id="change2_12"><path d="M260.6,634h35c4.4,0,8-3.6,8-8v-16.4c0-4.4-3.6-8-8-8h-35c-4.4,0-8,3.6-8,8v16.4 C252.6,630.4,256.2,634,260.6,634z" fill="#fd871b"/></g><g id="change2_13"><path d="M199,756.6l57-5.3c7.2-0.7,13.1-7.1,13.1-14.3v-26.8c0-7.2-5.9-12.5-13.1-11.9l-57,5.3 c-7.2,0.7-13.1,7.1-13.1,14.3v26.8C185.9,752,191.7,757.3,199,756.6z" fill="#fd871b"/></g><g id="change2_14"><path d="M240.5,642.8l75.3,7.1c4,0.4,7.2-2.5,7.2-6.5v-19c0-4-3.2-7.5-7.2-7.8l-75.3-7.1c-4-0.4-7.2,2.5-7.2,6.5v19 C233.3,638.9,236.5,642.5,240.5,642.8z" fill="#fd871b"/></g><g id="change2_15"><path d="M219.8,718l112.7,10.7c7.1,0.7,13.6-5.3,13.6-12.5v-48.1c0-6.4-5.2-11.3-11.6-10.8l-112.7,8.3 c-6.4,0.5-11.6,6.1-11.6,12.5v29.1C210.1,712.9,214.2,717.5,219.8,718z" fill="#fd871b"/></g><g id="change4_28"><path d="M278.1,810.6c-0.6,0-1-0.4-1-1V626.3c0-0.6,0.4-1,1-1s1,0.4,1,1v183.3C279.1,810.1,278.7,810.6,278.1,810.6z" fill="#141623"/></g><g id="change4_29"><path d="M278.1,656.4c-0.6,0-1-0.4-1-1s0.4-1,1-1c9,0,17.6-3.9,23.7-10.6l1.2-1.3c0.4-0.4,1-0.4,1.4-0.1 c0.4,0.4,0.4,1,0.1,1.4l-1.2,1.3C296.9,652.3,287.7,656.4,278.1,656.4z" fill="#141623"/></g><g id="change4_30"><path d="M278.1,638.1h-3.4c-6.7,0-12.8-4.3-15.1-10.6l-0.9-2.5c-0.2-0.5,0.1-1.1,0.6-1.3c0.5-0.2,1.1,0.1,1.3,0.6 l0.9,2.5c2,5.5,7.3,9.3,13.2,9.3h3.4c0.6,0,1,0.4,1,1S278.7,638.1,278.1,638.1z" fill="#141623"/></g><g id="change4_31"><path d="M278.1,730.2c-0.4,0-0.7-0.2-0.9-0.6c-0.2-0.5,0-1.1,0.5-1.3l53.1-24.3c0.5-0.2,1.1,0,1.3,0.5 c0.2,0.5,0,1.1-0.5,1.3l-53.1,24.3C278.4,730.2,278.3,730.2,278.1,730.2z" fill="#141623"/></g><g id="change4_32"><path d="M278.1,694.6c-0.1,0-0.3,0-0.4-0.1l-32.1-13c-0.5-0.2-0.8-0.8-0.6-1.3c0.2-0.5,0.8-0.8,1.3-0.6l32.1,13 c0.5,0.2,0.8,0.8,0.6,1.3C278.9,694.4,278.5,694.6,278.1,694.6z" fill="#141623"/></g><g id="change4_33"><path d="M278.1,771.9c0,0-0.1,0-0.1,0l-37.2-3.8c-5.4-0.6-10.3-3.5-13.4-7.9l-8.7-12.6c-0.3-0.5-0.2-1.1,0.3-1.4 c0.5-0.3,1.1-0.2,1.4,0.3l8.7,12.6c2.8,4,7.1,6.6,12,7.1l37.2,3.8c0.5,0.1,0.9,0.5,0.9,1.1C279.1,771.6,278.6,771.9,278.1,771.9z" fill="#141623"/></g><g id="change4_34"><path d="M246.9,768.7c-0.5,0-0.9-0.3-1-0.8l-4.5-19.8c-0.1-0.5,0.2-1.1,0.8-1.2c0.5-0.1,1.1,0.2,1.2,0.8l4.5,19.8 c0.1,0.5-0.2,1.1-0.8,1.2C247,768.7,246.9,768.7,246.9,768.7z" fill="#141623"/></g><g id="change4_35"><path d="M244.6,757.7c-0.2,0-0.4,0-0.5-0.2c-0.5-0.3-0.6-0.9-0.3-1.4l4.2-6.8c0.3-0.5,0.9-0.6,1.4-0.3 c0.5,0.3,0.6,0.9,0.3,1.4l-4.2,6.8C245.3,757.5,245,757.7,244.6,757.7z" fill="#141623"/></g><g id="change2_16"><path d="M291.9,761.3l34.9,5.6c4.4,0.7,8-2.3,8-6.7v-16.4c0-4.4-3.6-8.6-8-9.3l-34.9-5.6c-4.4-0.7-8,2.3-8,6.7V752 C283.9,756.4,287.5,760.6,291.9,761.3z" fill="#fd871b"/></g><g id="change4_36"><path d="M199,703.7l57-5.3c7.2-0.7,13.1,4.6,13.1,11.9V737c0,7.2-5.9,13.6-13.1,14.3l-57,5.3 c-7.2,0.7-13.1-4.6-13.1-11.9V718C185.9,710.8,191.7,704.3,199,703.7z M283.9,735.6V752c0,4.4,3.6,8.6,8,9.3l34.9,5.6 c4.4,0.7,8-2.3,8-6.7v-16.4c0-4.4-3.6-8.6-8-9.3l-34.9-5.6C287.5,728.2,283.9,731.2,283.9,735.6z" fill="#141623" opacity=".1"/></g><g id="change4_37"><path d="M278.1,785.3c-0.4,0-0.8-0.3-1-0.7c-0.1-0.5,0.2-1.1,0.7-1.2l30.6-8.3c2.3-0.6,4.2-2.2,5.2-4.3l5.6-11.5 c0.2-0.5,0.8-0.7,1.3-0.5c0.5,0.2,0.7,0.8,0.5,1.3l-5.6,11.5c-1.3,2.7-3.7,4.6-6.5,5.4l-30.6,8.3 C278.3,785.2,278.2,785.3,278.1,785.3z" fill="#141623"/></g><g id="change4_38"><path d="M295.6,780.5c-0.1,0-0.2,0-0.4-0.1c-0.5-0.2-0.8-0.8-0.6-1.3l8.1-21c0.2-0.5,0.8-0.8,1.3-0.6 c0.5,0.2,0.8,0.8,0.6,1.3l-8.1,21C296.4,780.3,296,780.5,295.6,780.5z" fill="#141623"/></g><g id="change4_39"><path d="M311,715.1c-0.1,0-0.2,0-0.3,0c-0.5-0.1-0.8-0.7-0.7-1.2l4.2-15.7c0.1-0.5,0.7-0.9,1.2-0.7 c0.5,0.1,0.8,0.7,0.7,1.2l-4.2,15.7C311.9,714.8,311.5,715.1,311,715.1z" fill="#141623"/></g><g id="change1_2"><path d="M665.5,58.7c0,0-33-19.6-62.9-19.9C572.7,38.3,577.7,0,532.5,0s-32.8,42.9-63.2,39.1s-30.4,19.6-30.4,19.6 H665.5z" fill="#f1dbce"/></g><g id="change1_3"><path d="M1352.9,179.4c0,0-33-19.6-62.9-19.9s-24.9-38.7-70.2-38.7c-45.2,0-32.8,42.9-63.2,39.1s-30.4,19.6-30.4,19.6 H1352.9z" fill="#f1dbce"/></g><g id="change1_4"><path d="M313.2,215.1c0,0-33-19.6-62.9-19.9c-29.9-0.4-24.9-38.7-70.2-38.7s-32.8,42.9-63.2,39.1 s-30.4,19.6-30.4,19.6H313.2z" fill="#f1dbce"/></g><g id="change2_17"><path d="M319.5 424.1H1171.9V764.2H319.5z" fill="#fd871b"/></g><g id="change4_40"><path d="M584.5,763.6h-88.4V642.4c0-1.8,1.5-3.3,3.3-3.3h81.9c1.8,0,3.3,1.5,3.3,3.3V763.6z" fill="#141623" opacity=".4"/></g><g id="change4_41"><path d="M508.2 648.4H584.5V763.6999999999999H508.2z" fill="#141623" opacity=".4"/></g><g id="change4_42"><path d="M504.7 489.9H575.9V550H504.7z" fill="#141623" opacity=".4"/></g><g id="change4_43"><path d="M350.7 489.9H421.9V550H350.7z" fill="#141623" opacity=".4"/></g><g id="change4_44"><path d="M649.9 489.9H721.1V550H649.9z" fill="#141623" opacity=".4"/></g><g id="change4_45"><path d="M655.8 639.2H721.0999999999999V721.5H655.8z" fill="#141623" opacity=".4"/></g><g id="change4_46"><path d="M353.6 639.2H418.90000000000003V721.5H353.6z" fill="#141623" opacity=".4"/></g><g id="change4_47"><path d="M774.3 424.1H1171.8V764.2H774.3z" fill="#141623" opacity=".2"/></g><g id="change4_48"><path d="M979.7 489.9H1029.8V550H979.7z" fill="#141623" opacity=".1"/></g><g id="change4_49"><path d="M871.3 489.9H921.4V550H871.3z" fill="#141623" opacity=".1"/></g><g id="change1_5"><path d="M895.9 495.2H897.8V544.5H895.9z" fill="#f1dbce"/></g><g id="change1_6"><path d="M914.8,545.5h-36v-51.2h36V545.5z M880.7,543.6h32.2v-47.4h-32.2V543.6z" fill="#f1dbce"/></g><g id="change1_7"><path d="M879.7 518.9H913.8000000000001V520.8H879.7z" fill="#f1dbce"/></g><g id="change1_8"><path d="M1003.7 495.2H1005.6V544.5H1003.7z" fill="#f1dbce"/></g><g id="change1_9"><path d="M1022.7,545.5h-36v-51.2h36V545.5z M988.6,543.6h32.2v-47.4h-32.2V543.6z" fill="#f1dbce"/></g><g id="change1_10"><path d="M987.6 518.9H1021.7V520.8H987.6z" fill="#f1dbce"/></g><g id="change4_50"><path d="M1081.8 489.9H1131.8999999999999V550H1081.8z" fill="#141623" opacity=".1"/></g><g id="change1_11"><path d="M1105.9 495.2H1107.8000000000002V544.5H1105.9z" fill="#f1dbce"/></g><g id="change1_12"><path d="M1124.9,545.5h-36v-51.2h36V545.5z M1090.7,543.6h32.2v-47.4h-32.2V543.6z" fill="#f1dbce"/></g><g id="change1_13"><path d="M1089.8 518.9H1123.8999999999999V520.8H1089.8z" fill="#f1dbce"/></g><g id="change4_51"><path d="M1085.9 639.2H1131.8000000000002V763.7H1085.9z" fill="#141623" opacity=".4"/></g><g id="change4_52"><path d="M1085.9 646.8H1122.3000000000002V763.5999999999999H1085.9z" fill="#141623" opacity=".4"/></g><g id="change4_53"><path d="M989.9 639.2H1035.8V763.7H989.9z" fill="#141623" opacity=".4"/></g><g id="change4_54"><path d="M989.9 646.8H1026.3V763.5999999999999H989.9z" fill="#141623" opacity=".4"/></g><g id="change4_55"><path d="M873.4 646.8H909.8V763.5999999999999H873.4z" fill="#141623" opacity=".4"/></g><g id="change4_56"><path d="M873.4 639.2H919.3V763.7H873.4z" fill="#141623" opacity=".4"/></g><g id="change2_18"><path d="M669.1 370.8H1221.2V424.1H669.1z" fill="#fd871b"/></g><g id="change3_5"><path d="M945.2 169.6L540.3 169.6 596.2 370.8 1294.2 370.8 1294.2 317.5z" fill="#fcc03e"/></g><g id="change3_6"><path d="M264.3 370.8H816.4000000000001V424.1H264.3z" fill="#fcc03e"/></g><g id="change2_19"><path d="M1294.2,316.5H887l-24.9-10.5h402.5c0.6,0,1-0.4,1-1s-0.4-1-1-1H857.4l-24.9-10.5H1235c0.6,0,1-0.4,1-1 s-0.4-1-1-1H827.7l-24.9-10.5h402.5c0.6,0,1-0.4,1-1s-0.4-1-1-1H798.1l-24.9-10.5h402.5c0.6,0,1-0.4,1-1s-0.4-1-1-1H768.5 l-24.9-10.5h402.5c0.6,0,1-0.4,1-1s-0.4-1-1-1H738.9L714,243.2h402.5c0.6,0,1-0.4,1-1s-0.4-1-1-1H709.3l-24.9-10.5H1087 c0.6,0,1-0.4,1-1s-0.4-1-1-1H679.7l-24.9-10.5h402.5c0.6,0,1-0.4,1-1s-0.4-1-1-1H650.1l-24.9-10.5h402.5c0.6,0,1-0.4,1-1 s-0.4-1-1-1H620.5l-24.9-10.5h402.5c0.6,0,1-0.4,1-1s-0.4-1-1-1H590.9L566,180.5h402.5c0.6,0,1-0.4,1-1s-0.4-1-1-1H561.3l-21-8.9 l-349,147.8v53.3h698v-52.3h404.9c0.6,0,1-0.4,1-1S1294.8,316.5,1294.2,316.5z" fill="#fd871b"/></g><g id="change3_7"><path d="M239.1 335.5L540.3 207.9 841.5 335.5z" fill="#fcc03e"/></g><g id="change4_57"><path d="M540.4 207.9L239.1 335.5 279.6 335.5 560.6 216.5z" fill="#141623" opacity=".1"/></g><g id="change4_58"><path d="M372.8 750.6L372.8 737 358.8 737 358.8 462.9 358.8 462.9 358.8 444.1 371.1 444.1 371.1 424.1 294.7 424.1 294.7 424.1 294.7 427.9 294.7 444.1 307.1 444.1 307.1 448.7 307.1 737 293 737 293 750.6 278.6 750.6 278.6 764.1 387.2 764.1 387.2 750.6z" fill="#141623" opacity=".4"/></g><g id="change4_59"><path d="M530.6 750.6L530.6 737 516.5 737 516.5 462.9 516.5 462.9 516.5 444.1 528.8 444.1 528.8 424.1 452.4 424.1 452.4 424.1 452.4 427.9 452.4 444.1 464.8 444.1 464.8 448.7 464.8 737 450.7 737 450.7 750.6 436.3 750.6 436.3 764.1 544.9 764.1 544.9 750.6z" fill="#141623" opacity=".4"/></g><g id="change4_60"><path d="M688.3 750.6L688.3 737 674.2 737 674.2 462.9 674.2 462.9 674.2 444.1 686.5 444.1 686.5 424.1 610.1 424.1 610.1 424.1 610.1 427.9 610.1 444.1 622.5 444.1 622.5 448.7 622.5 737 608.4 737 608.4 750.6 594 750.6 594 764.1 702.6 764.1 702.6 750.6z" fill="#141623" opacity=".4"/></g><g id="change4_61"><path d="M823.4 750.6L823.4 737 809.3 737 809.3 462.9 809.3 462.9 809.3 444.1 821.6 444.1 821.6 424.1 745.3 424.1 745.3 424.1 745.3 427.9 745.3 444.1 757.6 444.1 757.6 448.7 757.6 737 743.5 737 743.5 750.6 729.1 750.6 729.1 764.1 837.8 764.1 837.8 750.6z" fill="#141623" opacity=".1"/></g><g id="change4_62"><path d="M913.3 750.6L913.3 737 899.2 737 899.2 462.9 899.2 462.9 899.2 444.1 911.6 444.1 911.6 424.1 835.2 424.1 835.2 424.1 835.2 427.9 835.2 444.1 847.5 444.1 847.5 448.7 847.5 737 833.4 737 833.4 750.6 819 750.6 819 764.1 927.7 764.1 927.7 750.6z" fill="#141623" opacity=".4"/></g><g id="change4_63"><path d="M1015.7 750.6L1015.7 737 1001.6 737 1001.6 462.9 1001.6 462.9 1001.6 444.1 1013.9 444.1 1013.9 424.1 937.5 424.1 937.5 424.1 937.5 427.9 937.5 444.1 949.9 444.1 949.9 448.7 949.9 737 935.8 737 935.8 750.6 921.4 750.6 921.4 764.1 1030 764.1 1030 750.6z" fill="#141623" opacity=".4"/></g><g id="change4_64"><path d="M1118 750.6L1118 737 1103.9 737 1103.9 462.9 1103.9 462.9 1103.9 444.1 1116.2 444.1 1116.2 424.1 1039.9 424.1 1039.9 424.1 1039.9 427.9 1039.9 444.1 1052.2 444.1 1052.2 448.7 1052.2 737 1038.1 737 1038.1 750.6 1023.7 750.6 1023.7 764.1 1132.4 764.1 1132.4 750.6z" fill="#141623" opacity=".4"/></g><g id="change3_8"><path d="M1146 444.1H1197.7V737.1H1146z" fill="#fcc03e"/></g><g id="change2_20"><path d="M1131.9 737H1211.8000000000002V750.6H1131.9z" fill="#fd871b"/></g><g id="change3_9"><path d="M1117.5 750.6H1226.1V764.2H1117.5z" fill="#fcc03e"/></g><g id="change4_65"><path d="M1166.5 750.6L1165.9 737 1180 737 1180 444.1 1146 444.1 1146 462.9 1146 737 1131.9 737 1131.9 750.6 1117.5 750.6 1117.5 764.1 1152.8 764.1 1152.2 750.6z" fill="#141623" opacity=".1"/></g><g id="change3_10"><path d="M1042.4 444.1H1094.1000000000001V737.1H1042.4z" fill="#fcc03e"/></g><g id="change2_21"><path d="M1028.4 737H1108.3000000000002V750.6H1028.4z" fill="#fd871b"/></g><g id="change3_11"><path d="M1014 750.6H1122.6V764.2H1014z" fill="#fcc03e"/></g><g id="change4_66"><path d="M1063 750.6L1062.4 737 1076.5 737 1076.5 444.1 1042.4 444.1 1042.4 462.9 1042.4 737 1028.4 737 1028.4 750.6 1014 750.6 1014 764.1 1049.2 764.1 1048.6 750.6z" fill="#141623" opacity=".1"/></g><g id="change3_12"><path d="M938.9 444.1H990.6V737.1H938.9z" fill="#fcc03e"/></g><g id="change2_22"><path d="M924.8 737H1004.6999999999999V750.6H924.8z" fill="#fd871b"/></g><g id="change3_13"><path d="M910.4 750.6H1019V764.2H910.4z" fill="#fcc03e"/></g><g id="change4_67"><path d="M959.5 750.6L958.8 737 972.9 737 972.9 444.1 938.9 444.1 938.9 462.9 938.9 737 924.8 737 924.8 750.6 910.4 750.6 910.4 764.1 945.7 764.1 945.1 750.6z" fill="#141623" opacity=".1"/></g><g id="change3_14"><path d="M835.4 444.1H887.1V737.1H835.4z" fill="#fcc03e"/></g><g id="change2_23"><path d="M821.3 737H901.1999999999999V750.6H821.3z" fill="#fd871b"/></g><g id="change3_15"><path d="M806.9 750.6H915.5V764.2H806.9z" fill="#fcc03e"/></g><g id="change4_68"><path d="M855.9 750.6L855.3 737 869.4 737 869.4 444.1 835.4 444.1 835.4 462.9 835.4 737 821.3 737 821.3 750.6 806.9 750.6 806.9 764.1 842.2 764.1 841.5 750.6z" fill="#141623" opacity=".1"/></g><g id="change3_16"><path d="M287.8 444.1H339.5V737.1H287.8z" fill="#fcc03e"/></g><g id="change2_24"><path d="M273.7 737H353.6V750.6H273.7z" fill="#fd871b"/></g><g id="change3_17"><path d="M259.4 750.6H368V764.2H259.4z" fill="#fcc03e"/></g><g id="change3_18"><path d="M438.9 444.1H490.59999999999997V737.1H438.9z" fill="#fcc03e"/></g><g id="change2_25"><path d="M424.8 737H504.70000000000005V750.6H424.8z" fill="#fd871b"/></g><g id="change3_19"><path d="M410.4 750.6H519V764.2H410.4z" fill="#fcc03e"/></g><g id="change3_20"><path d="M641.7 737L590 737 590 444.1 641.7 444.1" fill="#fcc03e"/></g><g id="change2_26"><path d="M575.9 737H655.8V750.6H575.9z" fill="#fd871b"/></g><g id="change3_21"><path d="M561.5 750.6H670.1V764.2H561.5z" fill="#fcc03e"/></g><g id="change3_22"><path d="M741.1 444.1H792.8000000000001V737.1H741.1z" fill="#fcc03e"/></g><g id="change2_27"><path d="M727 737H806.9V750.6H727z" fill="#fd871b"/></g><g id="change3_23"><path d="M712.6 750.6H821.2V764.2H712.6z" fill="#fcc03e"/></g><g id="change3_24"><path d="M275.5 424.1H351.9V444.1H275.5z" fill="#fcc03e"/></g><g id="change4_69"><path d="M275.5 424.1L275.5 427.9 335.3 436.8 335.3 444.1 287.8 444.1 287.8 448.7 339.5 462.9 339.5 444.1 351.9 444.1 351.9 439.3 351.9 434.1 351.9 424.1z" fill="#141623" opacity=".3"/></g><g id="change3_25"><path d="M426.6 424.1H503V444.1H426.6z" fill="#fcc03e"/></g><g id="change4_70"><path d="M426.6 424.1L426.6 427.9 486.4 436.8 486.4 444.1 438.9 444.1 438.9 448.7 490.6 462.9 490.6 444.1 503 444.1 503 439.3 503 434.1 503 424.1z" fill="#141623" opacity=".3"/></g><g id="change3_26"><path d="M577.7 424.1H654.1V444.1H577.7z" fill="#fcc03e"/></g><g id="change4_71"><path d="M577.7 424.1L577.7 427.9 637.5 436.8 637.5 444.1 590 444.1 590 448.7 641.7 462.9 641.7 444.1 654 444.1 654 439.3 654 434.1 654 424.1z" fill="#141623" opacity=".3"/></g><g id="change3_27"><path d="M728.8 424.1H805.1999999999999V444.1H728.8z" fill="#fcc03e"/></g><g id="change4_72"><path d="M728.8 424.1L728.8 427.9 788.6 436.8 788.6 444.1 741.1 444.1 741.1 448.7 792.8 462.9 792.8 444.1 805.1 444.1 805.1 439.3 805.1 434.1 805.1 424.1z" fill="#141623" opacity=".3"/></g><g id="change3_28"><path d="M823 424.1H899.4V444.1H823z" fill="#fcc03e"/></g><g id="change4_73"><path d="M823 424.1L823 427.9 882.8 436.8 882.8 444.1 835.4 444.1 835.4 448.7 887.1 462.9 887.1 444.1 899.4 444.1 899.4 439.3 899.4 434.1 899.4 424.1z" fill="#141623" opacity=".3"/></g><g id="change3_29"><path d="M926.6 424.1H1003V444.1H926.6z" fill="#fcc03e"/></g><g id="change4_74"><path d="M926.6 424.1L926.6 427.9 986.4 436.8 986.4 444.1 938.9 444.1 938.9 448.7 990.6 462.9 990.6 444.1 1002.9 444.1 1002.9 439.3 1002.9 434.1 1002.9 424.1z" fill="#141623" opacity=".3"/></g><g id="change3_30"><path d="M1030.1 424.1H1106.5V444.1H1030.1z" fill="#fcc03e"/></g><g id="change4_75"><path d="M1030.1 424.1L1030.1 427.9 1089.9 436.8 1089.9 444.1 1042.4 444.1 1042.4 448.7 1094.1 462.9 1094.1 444.1 1106.5 444.1 1106.5 439.3 1106.5 434.1 1106.5 424.1z" fill="#141623" opacity=".3"/></g><g id="change3_31"><path d="M1133.6 424.1H1210V444.1H1133.6z" fill="#fcc03e"/></g><g id="change4_76"><path d="M1133.6 424.1L1133.6 427.9 1193.5 436.8 1193.5 444.1 1146 444.1 1146 448.7 1197.7 462.9 1197.7 444.1 1210 444.1 1210 439.3 1210 434.1 1210 424.1z" fill="#141623" opacity=".3"/></g><g id="change1_14"><path d="M385.3 495.2H387.2V544.5H385.3z" fill="#f1dbce"/></g><g id="change1_15"><path d="M416.5,545.5h-60.4v-51.2h60.4V545.5z M358,543.6h56.5v-47.4H358V543.6z" fill="#f1dbce"/></g><g id="change1_16"><path d="M357 518.9H415.5V520.8H357z" fill="#f1dbce"/></g><g id="change1_17"><path d="M385.3 646.3H387.2V714.3H385.3z" fill="#f1dbce"/></g><g id="change1_18"><path d="M413.2,715.2h-53.9v-69.9h53.9V715.2z M361.3,713.3h50v-66.1h-50V713.3z" fill="#f1dbce"/></g><g id="change1_19"><path d="M360.3 679.3H412.2V681.1999999999999H360.3z" fill="#f1dbce"/></g><g id="change1_20"><path d="M687.5 646.3H689.4V714.3H687.5z" fill="#f1dbce"/></g><g id="change1_21"><path d="M715.4,715.2h-53.9v-69.9h53.9V715.2z M663.4,713.3h50v-66.1h-50V713.3z" fill="#f1dbce"/></g><g id="change1_22"><path d="M662.5 679.3H714.4V681.1999999999999H662.5z" fill="#f1dbce"/></g><g id="change1_23"><path d="M539.4 495.2H541.3V544.5H539.4z" fill="#f1dbce"/></g><g id="change1_24"><path d="M570.5,545.5h-60.4v-51.2h60.4V545.5z M512,543.6h56.5v-47.4H512V543.6z" fill="#f1dbce"/></g><g id="change1_25"><path d="M511.1 518.9H569.6V520.8H511.1z" fill="#f1dbce"/></g><g id="change1_26"><path d="M684.5 495.2H686.4V544.5H684.5z" fill="#f1dbce"/></g><g id="change1_27"><path d="M715.7,545.5h-60.4v-51.2h60.4V545.5z M657.2,543.6h56.5v-47.4h-56.5V543.6z" fill="#f1dbce"/></g><g id="change1_28"><path d="M656.3 518.9H714.8V520.8H656.3z" fill="#f1dbce"/></g><g id="change2_28"><circle cx="546.6" cy="276.5" fill="#fd871b" r="43"/></g><g id="change4_77"><circle cx="546.6" cy="276.5" fill="#141623" opacity=".3" r="43"/></g><g id="change2_29"><circle cx="540.3" cy="276.5" fill="#fd871b" r="43"/></g><g id="change3_32"><circle cx="540.3" cy="276.5" fill="#fcc03e" r="32.9"/></g><g id="change4_78"><path d="M557.7,255.3l-11.5,20.8h7.3v4.9h-8.7v3.7h8.7v4.9h-8.7v12.4h-9.4v-12.4h-8.5v-4.9h8.5V281h-8.5v-4.9h7.1 L523,255.3v-2.2h10.5v2.2h-0.1c5,11.7,6.3,14,7.1,16.3h0.1c0.6-1.7,2.2-5,7.1-16.3h-0.5v-2.2h10.5V255.3z" fill="#141623" opacity=".1"/></g><g id="change2_30"><path d="M557.7,253.1h-10c-5,11.3-6.5,14.6-7.1,16.3h-0.1c-0.8-2.3-2-4.5-7.1-16.3H523l11.1,20.9h-7.1v4.9h8.5v3.7 h-8.5v4.9h8.5v12.4h9.4v-12.4h8.7v-4.9h-8.7v-3.7h8.7v-4.9h-7.3L557.7,253.1z" fill="#fd871b"/></g><g><g id="change3_1"><path d="M112.9 787.9H1298.8000000000002V811.6999999999999H112.9z" fill="#fcc03e"/></g><g id="change2_1"><path d="M139.4 764.1H1272.4V787.9H139.4z" fill="#fd871b"/></g><g id="change2_2"><path d="M86.6 811.7H1325.1V835.5H86.6z" fill="#fd871b"/></g></g><g id="change4_79"><path d="M721.1 764.1H1272.4V787.9H721.1z" fill="#141623" opacity=".1"/></g><g id="change4_80"><path d="M668.4 811.7H1325.1999999999998V835.5H668.4z" fill="#141623" opacity=".1"/></g><g id="change4_81"><path d="M694.7 787.9H1298.9V811.6999999999999H694.7z" fill="#141623" opacity=".2"/></g><g id="change4_82"><path d="M1325.2,812.7H86.6v-2h1238.6V812.7z M1298.9,788.9h-1186v-2h1186V788.9z M1210,445.1h-76.4v-2h76.4V445.1z M1106.5,445.1h-76.4v-2h76.4V445.1z M1002.9,445.1h-76.4v-2h76.4V445.1z M899.4,445.1H823v-2h76.4V445.1z M805.5,445.1h-76.4v-2 h76.4V445.1z M503,445.1h-76.4v-2H503V445.1z M654.4,445h-76.7v-2h76.7V445z M351.9,445h-76.7v-2h76.7V445z M1221.3,425.1h-957v-2 h957V425.1z M1294.2,371.8H191.3v-2h1102.9V371.8z" fill="#141623"/></g><g id="change4_83"><path d="M206.4 531.7L204.2 536.9 228.7 536.9 225.1 531.7 215.8 530.5z" fill="#141623"/></g><g id="change5_1"><path d="M250.4,637.1c0,0-0.9,3.1-0.7,5.3c0.2,2.2,1.1,2.8,0.6,5.2s-0.5,3.4,0.4,3.8s1.7,0.3,2.1-0.6 c0.4-0.9,1.6-3.9,1.6-3.9s1.3,2.4,1.8,5.1c0.5,2.7,0.6,4.3,1.1,4.9c0.6,0.6,1.3,1,1.3,1s0.9,1.8,2.4,1.7c1.5-0.1,0.8-4.2,1.3-4.8 s1.3-1.8,1.3-3.5c0-1.6,1-2.2,0.3-5.1c-0.7-3-1.7-10.5-1.7-10.5S255.4,630.6,250.4,637.1z" fill="#fb8875"/></g><g id="change4_84"><path d="M256.4,641c0.2,0.2,0.1,0.3,0.1,0.4c0,0.1,0,0.3-0.1,0.4l-0.2,0.8c-0.1,0.5-0.2,1-0.4,1.5 c-0.1,0.5-0.3,1-0.5,1.5c-0.1,0.2-0.2,0.5-0.3,0.7c-0.1,0.1-0.1,0.2-0.2,0.3c-0.1,0.1,0,0.3-0.3,0.3c-0.2-0.2-0.1-0.3-0.1-0.4 c0-0.1,0.1-0.3,0.1-0.4c0.1-0.2,0.1-0.5,0.2-0.7c0.1-0.5,0.3-1,0.5-1.5l0.6-1.4l0.2-0.7c0-0.1,0.1-0.2,0.1-0.4 C256.1,641.2,256.1,641,256.4,641z" fill="#141623"/></g><g id="change4_85"><path d="M259.4,644.8c0.3,0.3,0.2,0.6,0.2,0.9c0,0.3,0,0.6,0.1,0.9c0,0.6,0.1,1.2,0.1,1.8c0.1,1.2,0.3,2.3,0.5,3.5 c0.2,1.2,0.4,2.4,0.3,3.6c0,0.6,0,1.2-0.3,1.8c-0.1,0.3-0.4,0.6-0.7,0.7c-0.2,0.1-0.3,0.1-0.5,0.1c-0.2,0-0.4-0.1-0.5-0.3 c0.2-0.1,0.3-0.1,0.4-0.1c0.1,0,0.2-0.1,0.3-0.1c0.2-0.1,0.3-0.3,0.4-0.6c0.2-0.5,0.2-1.1,0.2-1.6c0-1.1-0.2-2.3-0.4-3.5 c-0.2-1.2-0.3-2.4-0.3-3.5c0-0.6,0-1.2-0.1-1.8c0-0.3,0-0.6,0-0.9C259.3,645.4,259.2,645.1,259.4,644.8z" fill="#141623"/></g><g id="change4_86"><path d="M261.3,645c0.3,0.2,0.2,0.4,0.3,0.6c0,0.2,0.1,0.4,0.1,0.6l0.1,1.3c0.1,0.9,0.2,1.7,0.3,2.6 c0.1,0.9,0.1,1.7,0.2,2.6l0.1,1.3c0,0.2,0,0.4,0,0.7c0,0.2,0.1,0.4-0.2,0.7c-0.3-0.2-0.2-0.4-0.3-0.6c0-0.2-0.1-0.4-0.1-0.6 c-0.1-0.4-0.1-0.9-0.2-1.3c-0.1-0.9-0.2-1.7-0.3-2.6c-0.1-0.9-0.1-1.7-0.1-2.6l-0.1-1.3c0-0.2,0-0.4,0-0.7 C261.2,645.4,261,645.2,261.3,645z" fill="#141623"/></g><g id="change4_87"><path d="M263.8,651.5c-0.3-0.1-0.2-0.3-0.3-0.4c0-0.1-0.1-0.3-0.1-0.4l-0.2-0.9c-0.1-0.6-0.3-1.2-0.4-1.8 c-0.1-0.6-0.1-1.2-0.1-1.8c0-0.3,0-0.6,0-0.9l0-0.5c0-0.2,0-0.3,0.2-0.5c0.3,0.2,0.2,0.3,0.2,0.4l0.1,0.4l0.1,0.9 c0.1,0.6,0.1,1.2,0.2,1.7c0.1,0.6,0.2,1.2,0.2,1.8l0.1,0.9c0,0.1,0,0.3,0,0.4C263.9,651.2,264,651.3,263.8,651.5z" fill="#141623"/></g><g id="change5_2"><path d="M220.8,523.7h-5.1h-5.1c-0.2,4.1-2.8,12-2.8,12h7.9h7.9C223.7,535.7,221,527.8,220.8,523.7z" fill="#fb8875"/></g><g id="change4_88"><path d="M209.4,530.5l0.4-1.9l11.3-3l-2.8,2.5c-2.2,2-5.2,2.9-8.1,2.4L209.4,530.5z" fill="#141623"/></g><g id="change5_3"><path d="M203,497.5c0,0-3.4,5.9-3,11.7c0.5,5.7-2.4,18.6,9.7,19.5c7.9,0.6,11.1-1.9,13.4-6.1s2.3-8.6,1.9-16.7 S214.1,487.5,203,497.5z" fill="#fb8875"/></g><g id="change4_89"><path d="M203,497.5c0,0-2.7,4.7-3,9.9c0,0.1,0,0.3,0,0.3s1.7-4.1,4.5-5.4c2.9-1.3,9-2.3,10.7-4 c1.8-1.7,1.9-2.2,1.9-2.2s-2.1,6.4,0.5,9c1.3,1.3,4.2,2.4,4.9,4.2c0.1-0.6,0.2-1.3,0.4-2C224.3,499.4,214.1,487.5,203,497.5z" fill="#141623" opacity=".1"/></g><g id="change5_4"><path d="M224.5,512.7c0,0,0.9-3.4,3.2-3.1c2.3,0.4,2.4,3.5,1.6,5.5s-2.3,2.9-4.8,2.5V512.7z" fill="#fb8875"/></g><g id="change4_90"><path d="M214.7,485.5c-3.6,0-12.3,0.1-16.8,6.5s0.8,12.8,0.8,12.8l0.6-3.2l1,3.5c0,0,1.6-4.9,2.9-6.4 c1.3-1.5,5.9,0.9,11.7-0.9c2.3-0.7,2.3-1.7,2.3-1.7s-0.2,5.4,2.3,8s4.1,8.4,4.1,8.4l1.5-0.2c0,0,0.4-2.8,3-2.6c0,0,2.3-7.5,2.3-12 c0-4.5-6.8-6.2-8.8-5C221.5,492.7,221.8,485.5,214.7,485.5z" fill="#141623"/></g><g id="change1_29"><path d="M242.7,545.8c-2-3-5.1-5.4-7.8-7.2c-3.6-2.3-7.9-3.5-12.2-3.5h-6.9h-6.9c-4.3,0-8.6,1.2-12.2,3.5 c-2.8,1.8-5.8,4.2-7.8,7.2c-4.7,6.9-2.5,51.5-2.5,51.5h58.8C245.2,597.4,247.4,552.8,242.7,545.8z" fill="#f1dbce"/></g><g id="change1_30"><path d="M208.9 535.1L215.8 567 222.7 535.1z" fill="#f1dbce"/></g><g id="change1_31"><path d="M215.8 535.1L208.9 530.5 206.1 535.8z" fill="#f1dbce"/></g><g id="change1_32"><path d="M215.8 535.1L222.7 530.5 225.4 535.8z" fill="#f1dbce"/></g><g id="change4_91"><path d="M215.9,535.8c-0.4,0.7-1,1.4-1.6,1.9c-0.6,0.6-1.3,1-2.1,1.5c-1.5,0.8-3.1,1.3-4.8,1.4 c-0.1,0-0.2-0.1-0.2-0.2c0-0.1,0-0.2,0.1-0.2l0,0c0.8-0.2,1.5-0.5,2.3-0.8c0.7-0.3,1.5-0.6,2.2-1c0.7-0.4,1.4-0.8,2-1.3 c0.7-0.5,1.2-1,1.8-1.6l0,0c0.1-0.1,0.1-0.1,0.2,0C215.9,535.6,215.9,535.7,215.9,535.8z" fill="#141623"/></g><g id="change4_92"><path d="M224.4,540.2c-1.7,0-3.3-0.5-4.9-1.2c-0.8-0.4-1.5-0.8-2.1-1.3c-0.7-0.5-1.2-1.2-1.7-1.8 c-0.1-0.1,0-0.2,0-0.2c0.1,0,0.2,0,0.2,0l0,0c0.6,0.5,1.2,1.1,1.9,1.5c0.7,0.4,1.3,0.9,2.1,1.2c1.4,0.7,3,1.2,4.6,1.6l0,0 c0.1,0,0.1,0.1,0.1,0.2C224.5,540.1,224.4,540.2,224.4,540.2z" fill="#141623"/></g><g id="change4_93"><path d="M215.9,547.3c0.1,4.2,0.1,8.3,0.2,12.5l0.1,12.5l0,12.5c0,4.2-0.1,8.3-0.2,12.5c0,0.1-0.1,0.2-0.2,0.2 c-0.1,0-0.2-0.1-0.2-0.2c-0.1-4.2-0.1-8.3-0.2-12.5l0-12.5l0.1-12.5c0-4.2,0.1-8.3,0.2-12.5c0-0.1,0.1-0.1,0.1-0.1 C215.9,547.2,215.9,547.3,215.9,547.3z" fill="#141623"/></g><g id="change5_5"><circle cx="218.1" cy="552.1" fill="#fb8875" r=".8"/></g><g id="change5_6"><circle cx="218.1" cy="565.4" fill="#fb8875" r=".8"/></g><g id="change5_7"><circle cx="218.1" cy="578.7" fill="#fb8875" r=".8"/></g><g id="change5_8"><circle cx="218.1" cy="592" fill="#fb8875" r=".8"/></g><g id="change4_94"><ellipse cx="205.3" cy="510.8" fill="#141623" rx=".9" ry="1.1"/></g><g id="change5_9"><circle cx="205.6" cy="510.4" fill="#fb8875" r=".3"/></g><g id="change4_95"><path d="M205.1,506.7c-1,0.5-1.9,0.9-2.1,0.5c-0.2-0.5,0.4-1.2,1.4-1.7s2-0.5,2.2,0 C206.8,505.9,206.1,506.2,205.1,506.7z" fill="#141623"/></g><g id="change4_96"><path d="M212.1,506.8c1,0.5,1.8,0.8,2,0.4c0.2-0.5-0.4-1.2-1.4-1.7c-1-0.5-2-0.5-2.2,0 C210.3,505.9,211.1,506.4,212.1,506.8z" fill="#141623"/></g><g id="change4_97"><path d="M207.3,509l-0.2,5l-0.1,1.3c0,0.5,0,0.7,0.2,0.9c0.1,0.1,0.2,0.2,0.4,0.2c0.1,0,0.1,0,0.2,0l0.3,0l1.2-0.1 c0.2,0,0.4,0.1,0.4,0.3c0,0.2-0.1,0.4-0.3,0.4c0,0,0,0,0,0l-1.3,0.1l-0.3,0c-0.1,0-0.3,0-0.4,0c-0.3-0.1-0.5-0.2-0.7-0.4 c-0.2-0.2-0.3-0.5-0.4-0.7c0-0.3,0-0.5,0-0.7l0.1-1.3l0.5-5c0-0.1,0.1-0.2,0.2-0.1C207.3,508.8,207.3,508.9,207.3,509z" fill="#141623"/></g><g id="change4_98"><path d="M214.2,516.4c-0.3,0.5-0.7,1-1.2,1.4c-0.5,0.4-1,0.7-1.6,0.9c-1.2,0.4-2.4,0.5-3.6,0.3 c-0.1,0-0.1-0.1-0.1-0.2c0-0.1,0.1-0.1,0.2-0.1l0,0c1.1-0.1,2.3-0.2,3.3-0.6c0.5-0.2,1-0.4,1.5-0.7c0.5-0.3,0.9-0.6,1.3-1l0,0 c0.1-0.1,0.2,0,0.2,0C214.3,516.2,214.3,516.3,214.2,516.4z" fill="#141623"/></g><g id="change4_99"><path d="M209.9,519.6c0.4-0.2,0.7-0.2,1.1-0.3c0.3,0,0.6-0.1,1-0.2l0,0c0.1,0,0.2,0,0.2,0.1c0,0,0,0.1,0,0.1 c-0.2,0.4-0.7,0.6-1.1,0.7c-0.4,0-0.8,0-1.2-0.2C209.8,519.8,209.8,519.7,209.9,519.6C209.9,519.6,209.9,519.6,209.9,519.6z" fill="#141623"/></g><g id="change4_100"><path d="M225.5,514.2c-0.1-0.7,0.1-1.4,0.4-2c0.2-0.3,0.5-0.6,0.9-0.7c0.4-0.1,0.8-0.1,1.1,0.2c0.1,0.1,0.1,0.2,0,0.2 c0,0-0.1,0.1-0.2,0l0,0c-0.3-0.1-0.5,0-0.7,0.1c-0.2,0.1-0.4,0.3-0.5,0.5c-0.3,0.4-0.5,1-0.8,1.6l0,0c0,0.1-0.1,0.1-0.2,0.1 C225.6,514.3,225.6,514.2,225.5,514.2z" fill="#141623"/></g><g id="change4_101"><path d="M226.2,512.5c0.1-0.3,0.4-0.5,0.7-0.5c0.3-0.1,0.6,0.1,0.9,0.3c0.4,0.4,0.4,1.1,0.2,1.5 c-0.1,0.1-0.2,0.1-0.3,0c0,0-0.1-0.1-0.1-0.1l0,0c-0.1-0.4-0.1-0.7-0.4-0.9c-0.1-0.1-0.2-0.2-0.3-0.2c-0.1,0-0.3,0-0.4,0.1l0,0 c-0.1,0-0.2,0-0.2-0.1C226.2,512.6,226.2,512.5,226.2,512.5z" fill="#141623"/></g><g id="change4_102"><path d="M226,513.2c0,0,0.4-1.6,1.5-1.4s1.1,1.6,0.7,2.5c-0.4,0.9-1.1,1.3-2.2,1.1V513.2z" fill="#141623" opacity=".1"/></g><g id="change4_103"><path d="M186.4 597.4H245.7V635.8H186.4z" fill="#141623"/></g><g id="change4_104"><path d="M220.6 612.5H245.6V684.1H220.6z" fill="#141623"/></g><g id="change4_105"><circle cx="233.1" cy="684.1" fill="#141623" r="12.5"/></g><g id="change4_106"><circle cx="233.1" cy="612.5" fill="#141623" r="12.5"/></g><g id="change4_107"><path d="M239.4 543.7H255.70000000000002V590.4000000000001H239.4z" fill="#141623" transform="rotate(173.073 247.53 567.04)"/></g><g id="change4_108"><circle cx="244.7" cy="543.9" fill="#141623" r="8.2"/></g><g id="change4_109"><circle cx="250.3" cy="590.1" fill="#141623" r="8.2"/></g><g id="change4_110"><path d="M245 589.9H261.3V636.6H245z" fill="#141623" transform="rotate(-6.927 253.158 613.116)"/></g><g id="change4_111"><circle cx="250.3" cy="590.1" fill="#141623" r="8.2"/></g><g id="change4_112"><path d="M220.6 684.1H245.6V770.9H220.6z" fill="#141623" transform="rotate(-180 233.104 727.531)"/></g><g id="change4_113"><circle cx="233.1" cy="684.1" fill="#141623" r="12.5"/></g><g id="change4_114"><path d="M211.4 684.3L186.4 684.2 186.4 612.5 211.4 612.7z" fill="#141623"/></g><g id="change4_115"><circle cx="198.9" cy="684.1" fill="#141623" r="12.5"/></g><g id="change4_116"><circle cx="198.9" cy="612.5" fill="#141623" r="12.5"/></g><g id="change4_117"><path d="M186.4 684.1H211.4V770.9H186.4z" fill="#141623" transform="rotate(-180 198.87 727.531)"/></g><g id="change4_118"><circle cx="198.9" cy="684.1" fill="#141623" r="12.5"/></g><g id="change5_10"><path d="M146.9,517.4c0,0-2.2-10.1-4.4-12.2c-2.1-2.1-7-3.7-8.8-2.6c-1.8,1.1-2.1,0.6-3.1,1.3 c-0.5,0.4-0.9,1-1.1,1.4c-0.1,0.1-0.2,0.3-0.3,0.3c-0.4,0.2-1.2,0.6-1.2,1.5c0,1,1.5,1.3,1.5,1.3s-1.9,1.2-0.3,2.5 c1,0.7,0.4,1.7,1,2.4s1.9,1.3,2.6,2.4c0.7,1.1,4.7,2.7,4.7,2.7L146.9,517.4z" fill="#fb8875"/></g><g id="change4_119"><path d="M158.9 530.7H175.20000000000002V577.4000000000001H158.9z" fill="#141623" transform="rotate(64.234 167.094 554.024)"/></g><g id="change4_120"><circle cx="188.1" cy="543.9" fill="#141623" r="8.2"/></g><g id="change4_121"><circle cx="146.2" cy="564.1" fill="#141623" r="8.2"/></g><g id="change4_122"><path d="M135.7 517.6H152V564.3000000000001H135.7z" fill="#141623" transform="rotate(-5.715 143.827 540.947) scale(.99997)"/></g><g id="change4_123"><circle cx="146.2" cy="564.1" fill="#141623" r="8.2"/></g><g id="change4_124"><path d="M206.4,531.7v111.7l-27.8-8.6l4.8-36.3c0.7-5.6,0.7-11.2,0-16.8l-3.5-33.1c-0.8-6.5,0.3-12.3,6-13.2 C186.5,535.3,206.4,531.7,206.4,531.7z" fill="#141623"/></g><g id="change4_125"><path d="M225.1,531.7v111.7l27.8-8.6l-4.8-36.3c-0.7-5.6-0.7-11.2,0-16.8l4.4-33.1c0.8-6.6-1.7-12.2-7.8-13 C244.2,535.5,225.1,531.7,225.1,531.7z" fill="#141623"/></g><g id="change4_126"><circle cx="200.9" cy="770.9" fill="#141623" r="6.4"/></g><g id="change4_127"><path d="M207.3,770.9v17h-29.7c-0.6,0-1-0.6-0.7-1.1c1.4-2.3,5.1-7.6,12.3-10.4c2.4-1,4.4-2.9,5.3-5.3l0-0.1H207.3z" fill="#141623"/></g><g id="change5_11"><path d="M193.4,781.2c-0.2,0-0.4-0.1-0.4-0.3c-1.9-3.8-6-3-6.2-2.9c-0.3,0.1-0.5-0.1-0.6-0.4s0.1-0.5,0.4-0.6 c0.1,0,5-1,7.3,3.5c0.1,0.2,0,0.5-0.2,0.7C193.5,781.2,193.5,781.2,193.4,781.2z" fill="#fb8875"/></g><g id="change5_12"><path d="M197.1,779.5c-0.2,0-0.4-0.1-0.4-0.3c-1.9-3.8-6-3-6.2-2.9c-0.3,0.1-0.5-0.1-0.6-0.4 c-0.1-0.3,0.1-0.5,0.4-0.6c0,0,5-1,7.3,3.5c0.1,0.2,0,0.5-0.2,0.7C197.3,779.5,197.2,779.5,197.1,779.5z" fill="#fb8875"/></g><g id="change4_128"><circle cx="233.6" cy="770.9" fill="#141623" r="6.4"/></g><g id="change4_129"><path d="M227.2,770.9v17h29.7c0.6,0,1-0.6,0.7-1.1c-1.4-2.3-5.1-7.6-12.3-10.4c-2.4-1-4.4-2.9-5.3-5.3l0-0.1H227.2z" fill="#141623"/></g><g id="change5_13"><path d="M241.1,781.2c-0.1,0-0.2,0-0.2-0.1c-0.2-0.1-0.3-0.4-0.2-0.7c2.3-4.5,7.2-3.5,7.3-3.5 c0.3,0.1,0.4,0.3,0.4,0.6c-0.1,0.3-0.3,0.4-0.6,0.4c-0.2,0-4.2-0.9-6.2,2.9C241.5,781.1,241.3,781.2,241.1,781.2z" fill="#fb8875"/></g><g id="change5_14"><path d="M237.4,779.5c-0.1,0-0.2,0-0.2-0.1c-0.2-0.1-0.3-0.4-0.2-0.7c2.3-4.5,7.2-3.5,7.3-3.5 c0.3,0.1,0.4,0.3,0.4,0.6c-0.1,0.3-0.3,0.4-0.6,0.4c-0.2,0-4.2-0.9-6.2,2.9C237.8,779.4,237.6,779.5,237.4,779.5z" fill="#fb8875"/></g><g id="change4_130"><ellipse cx="212.8" cy="510.8" fill="#141623" rx=".9" ry="1.1"/></g><g id="change5_15"><circle cx="213.1" cy="510.4" fill="#fb8875" r=".3"/></g><g id="change2_31"><path d="M136.9,509.5L136.9,509.5c-1.9,0-3.5,1.2-4.2,2.9c-3,8-15.6,22.2-11.5,30.5c0.1,0.3,0.3,0.6,0.5,0.9 c6.6,11.6,23.8,11.6,30.3,0c0.2-0.3,0.3-0.6,0.5-0.9c4.1-8.3-8.5-22.5-11.5-30.5C140.4,510.7,138.8,509.5,136.9,509.5z" fill="#fd871b"/></g><g id="change2_32"><path d="M141.7,497.7c-1.1,0.1-1.6-0.4-2-0.9c-0.4-0.5-2.8-0.6-2.8-0.6l0,0l0,0l0,0l0,0c0,0-2.4,0-2.8,0.6 c-0.4,0.5-0.9,1-2,0.9c-1.1-0.1-2.1,1.5-2.1,1.5s0.4,0.7,1.8,2.4c1.4,1.7,1.9,3.5,1.9,3.5h3.3l0,0h3.3c0,0,0.5-1.9,1.9-3.5 c1.4-1.7,1.8-2.4,1.8-2.4S142.8,497.6,141.7,497.7z" fill="#fd871b"/></g><g id="change5_16"><path d="M133.9,505.5c0,0-2,2.7-3.4,2.9c-1.4,0.2-0.6,2.2,1.7,2.6c2.3,0.4,3.6-0.8,3.6-0.8s2.6,1.6,5.2,1.5 c2.6-0.1,1-5.6,1-5.6S136,503.2,133.9,505.5z" fill="#fb8875"/></g><g id="change4_131"><path d="M141,511.8c-0.5,0.3-0.9,0.1-1.4,0.1c-0.5-0.1-0.9-0.2-1.4-0.3c-0.9-0.3-1.7-0.6-2.6-1.1l0.3,0 c-0.6,0.5-1.3,0.8-2,0.9c-0.7,0.1-1.4,0.1-2.2-0.1c-0.7-0.2-1.4-0.5-1.9-1.1c-0.2-0.3-0.5-0.7-0.4-1.2c0-0.2,0.1-0.5,0.4-0.7 c0.2-0.2,0.4-0.2,0.7-0.3l-0.1,0c1-0.4,2-1,2.6-1.8c0.1-0.2,0.3-0.5,0.5-0.7c0.2-0.2,0.5-0.4,0.7-0.6c0.3-0.1,0.5-0.3,0.8-0.3 c0.3-0.1,0.6-0.2,0.9,0c-0.2,0.2-0.5,0.3-0.7,0.4c-0.2,0.1-0.5,0.2-0.7,0.4c-0.2,0.1-0.4,0.3-0.6,0.5c-0.2,0.2-0.2,0.4-0.4,0.7 c-0.3,0.5-0.8,0.9-1.3,1.2c-0.5,0.3-1,0.6-1.5,0.9c0,0,0,0-0.1,0l0,0c-0.3,0.1-0.3,0.1-0.4,0.3c0,0.2,0.1,0.4,0.3,0.7 c0.4,0.4,0.9,0.7,1.5,0.9c0.6,0.2,1.3,0.2,1.9,0.1c0.6-0.1,1.2-0.3,1.7-0.7l0,0c0.1-0.1,0.2-0.1,0.3,0c0.8,0.5,1.6,0.8,2.4,1.1 c0.4,0.1,0.9,0.2,1.3,0.3C140.1,511.6,140.5,511.5,141,511.8z" fill="#141623"/></g><g id="change4_132"><path d="M129.6,505.5c0.2,0.2,0.1,0.1,0.2,0.2l0.1,0.1c0,0.1,0.1,0.1,0.2,0.2c0.2,0.1,0.5,0.2,0.7,0.3 c0.2,0.1,0.5,0.3,0.7,0.4l0.4,0.2c0.1,0,0.1,0.1,0.2,0.1c0.1,0.1,0.1,0,0.1,0.3c-0.1,0.3-0.2,0.1-0.3,0.2c-0.1,0-0.2,0-0.2,0 c-0.1,0-0.3-0.1-0.4-0.1c-0.3-0.1-0.6-0.2-0.8-0.3c-0.3-0.2-0.5-0.3-0.7-0.6c-0.1-0.1-0.3-0.2-0.3-0.4c0-0.1-0.1-0.2,0-0.3 C129.4,505.6,129.4,505.4,129.6,505.5z" fill="#141623"/></g><g id="change4_133"><path d="M131.6,504c0.2-0.2,0.2-0.1,0.3-0.1c0.1,0,0.1,0,0.2,0.1c0.1,0.1,0.2,0.1,0.3,0.2c0.2,0.1,0.4,0.2,0.6,0.4 c0.2,0.1,0.3,0.3,0.5,0.5c0.1,0.1,0.1,0.2,0.2,0.3c0,0.1,0,0.1,0.1,0.2c0,0.1,0.1,0.1-0.1,0.3c-0.3,0.1-0.2,0-0.3,0 c0,0-0.1-0.1-0.1-0.1c-0.1-0.1-0.2-0.1-0.2-0.2c-0.2-0.1-0.3-0.3-0.5-0.4l-0.4-0.5l-0.3-0.2c0,0-0.1-0.1-0.1-0.1 C131.6,504.1,131.5,504.2,131.6,504z" fill="#141623"/></g><g id="change4_134"><path d="M129.6,511.2c0.2-0.2,0.2-0.1,0.3-0.1c0.1,0,0.2,0,0.2,0l0.4,0.1l0.9,0.1c0.3,0,0.6,0.1,0.9,0.1 c0.1,0,0.1,0,0.2,0l0.2-0.1c0.1,0,0.1-0.2,0.3,0c0.1,0.3,0,0.2,0,0.3c0,0.1-0.1,0.1-0.1,0.2c-0.1,0.2-0.5,0.3-0.6,0.3 c-0.3,0-0.6,0-1,0c-0.3-0.1-0.6-0.2-0.9-0.3c-0.2,0-0.3-0.1-0.5-0.1c-0.1,0-0.1-0.1-0.2-0.1C129.7,511.4,129.6,511.5,129.6,511.2z" fill="#141623"/></g><g id="change4_135"><path d="M131,513.4c0.1-0.2,0.1-0.2,0.1-0.2c0,0,0.1,0,0.1,0c0.1,0,0.1,0,0.2,0c0.1-0.1,0.2-0.1,0.3-0.2 c0.1-0.1,0.2-0.1,0.3-0.1l0.1-0.1c0,0,0.1,0,0.1,0c0.1,0,0-0.1,0.2,0c0.3,0.2,0.1,0.1,0.1,0.2c0,0,0,0.1,0,0.1 c0,0.1-0.1,0.2-0.1,0.2c-0.1,0.2-0.3,0.3-0.5,0.3c-0.2,0.1-0.4,0.1-0.6,0c-0.1,0-0.2,0-0.3,0c0,0-0.1,0-0.1,0 C131.1,513.6,131,513.7,131,513.4z" fill="#141623"/></g><g id="change4_136"><path d="M143.8,525.3h-4c-2,4.5-2.6,5.9-2.9,6.5h0c-0.3-0.9-0.8-1.8-2.8-6.5h-4.2l4.4,8.4h-2.9v2h3.4v1.5h-3.4v2h3.4 v5h3.8v-5h3.5v-2h-3.5v-1.5h3.5v-2h-2.9L143.8,525.3z" fill="#141623"/></g><g id="change3_33"><path d="M1366.3,800.2l30.7-18.9c11.9-7.3,15.4-23.1,7.7-34.7l-8.5-12.9c-2.1-3.2-1.2-7.6,2.1-9.7l0,0 c7.1-4.4,9.2-13.7,4.6-20.7l-11.8-17.9c-2.1-3.2-1.2-7.6,2.1-9.7l0,0c3.3-2,4.3-6.4,2.1-9.7l-29.2-44.2l-29.2,44.2 c-2.1,3.2-1.2,7.6,2.1,9.7l0,0c3.3,2,4.3,6.4,2.1,9.7l-11.8,17.9c-4.6,7-2.5,16.3,4.6,20.7l0,0c3.3,2,4.3,6.4,2.1,9.7l-8.5,12.9 c-7.7,11.7-4.2,27.4,7.7,34.7l30.7,18.9l0,0.2l0.2-0.1l0.2,0.1L1366.3,800.2z" fill="#fcc03e"/></g><g id="change4_137"><path d="M1366.1,836.5c-0.6,0-1-0.4-1-1V645.8c0-0.6,0.4-1,1-1s1,0.4,1,1v189.6C1367.1,836,1366.6,836.5,1366.1,836.5 z" fill="#141623"/></g><g id="change4_138"><path d="M1365.9,684.8c-0.3,0-0.5-0.1-0.7-0.3l-15.5-15.5c-0.4-0.4-0.4-1,0-1.4s1-0.4,1.4,0l15.5,15.5 c0.4,0.4,0.4,1,0,1.4C1366.4,684.7,1366.2,684.8,1365.9,684.8z" fill="#141623"/></g><g id="change4_139"><path d="M1365.9,760.2c-0.3,0-0.5-0.1-0.7-0.3l-24.9-24.9c-0.4-0.4-0.4-1,0-1.4s1-0.4,1.4,0l24.9,24.9 c0.4,0.4,0.4,1,0,1.4C1366.4,760.1,1366.2,760.2,1365.9,760.2z" fill="#141623"/></g><g id="change4_140"><path d="M1365.9,729.1c-0.3,0-0.5-0.1-0.7-0.3c-0.4-0.4-0.4-1,0-1.4l24.9-24.9c0.4-0.4,1-0.4,1.4,0s0.4,1,0,1.4 l-24.9,24.9C1366.4,729,1366.2,729.1,1365.9,729.1z" fill="#141623"/></g><g id="change4_141"><path d="M1358.2,677.1c-0.4,0-0.8-0.3-1-0.7l-3.3-10.1c-0.2-0.5,0.1-1.1,0.6-1.3c0.5-0.2,1.1,0.1,1.3,0.6l3.3,10.1 c0.2,0.5-0.1,1.1-0.6,1.3C1358.4,677.1,1358.3,677.1,1358.2,677.1z" fill="#141623"/></g><g id="change4_142"><path d="M1376.1,719.1c-0.3,0-0.5-0.1-0.7-0.3c-0.4-0.4-0.4-1,0-1.4l4.6-4.7l3.2-13.2c0.1-0.5,0.7-0.9,1.2-0.7 c0.5,0.1,0.9,0.7,0.7,1.2l-3.2,13.5c0,0.2-0.1,0.3-0.3,0.5l-4.8,4.9C1376.6,719,1376.4,719.1,1376.1,719.1z" fill="#141623"/></g><g id="change4_143"><path d="M1353.1,747.4h-9.9c-0.6,0-1-0.4-1-1s0.4-1,1-1h8.5l-4.9-12.6c-0.2-0.5,0.1-1.1,0.6-1.3 c0.5-0.2,1.1,0.1,1.3,0.6l5.4,14c0.1,0.3,0.1,0.7-0.1,0.9C1353.7,747.2,1353.4,747.4,1353.1,747.4z" fill="#141623"/></g><g id="change4_144"><path d="M1101.4 677.7L1097.9 685.9 1136.4 685.9 1130.7 677.7 1116 675.8z" fill="#141623"/></g><g id="change5_17"><path d="M1124,665h-8h-8c-0.3,6.5-4.4,18.9-4.4,18.9h12.4h12.4C1128.4,683.9,1124.3,671.5,1124,665z" fill="#fb8875"/></g><g id="change4_145"><path d="M1116,665h-8c-0.1,1.5-0.4,3.4-0.8,5.4c2.4,1.1,5.4,1.7,9.2,1.7c3.3,0,6.1-0.5,8.3-1.3 c-0.4-2.1-0.8-4.1-0.8-5.8H1116z" fill="#141623" opacity=".4"/></g><g id="change5_18"><path d="M1133,648c0,0,1.5-5.4,5.1-4.8c3.6,0.6,3.8,5.5,2.5,8.6c-1.3,3.1-3.6,4.5-7.6,3.9V648z" fill="#fb8875"/></g><g id="change5_19"><path d="M1100.1,648c0,0-1.5-5.4-5.1-4.8c-3.6,0.6-3.8,5.5-2.5,8.6c1.3,3.1,3.6,4.5,7.6,3.9V648z" fill="#fb8875"/></g><g id="change5_20"><path d="M1131.8,624.5c-5.2-5.2-10.5-7.2-15.3-7c-4.8-0.3-10.1,1.7-15.3,7c0,0-4.7,9.6-3.6,18.4 c1.1,8.4-1.8,26.8,18.8,26.8c20.6,0,17.7-18.5,18.8-26.8C1136.6,634,1131.8,624.5,1131.8,624.5z" fill="#fb8875"/></g><g id="change3_34"><path d="M1158.3,699.9c-3.2-4.7-7.9-8.5-12.3-11.3c-5.7-3.7-12.4-5.6-19.2-5.6H1116h-10.9c-6.8,0-13.5,1.9-19.2,5.6 c-4.3,2.8-9.1,6.6-12.3,11.3c-7.4,10.9-3.9,80.9-3.9,80.9h92.4C1162.2,780.8,1165.7,710.7,1158.3,699.9z" fill="#fcc03e"/></g><g id="change3_35"><path d="M1105.2 683L1116 733.1 1126.9 683z" fill="#fcc03e"/></g><g id="change3_36"><path d="M1116 683L1105.2 675.8 1100.9 684.2z" fill="#fcc03e"/></g><g id="change3_37"><path d="M1116 683L1126.9 675.8 1131.2 684.2z" fill="#fcc03e"/></g><g id="change4_146"><path d="M1116.2,684c-0.7,1.1-1.6,2.1-2.6,2.9c-1,0.9-2.1,1.6-3.2,2.2c-1.2,0.6-2.4,1.1-3.6,1.5 c-1.2,0.4-2.5,0.7-3.8,0.8c-0.1,0-0.2-0.1-0.2-0.2c0-0.1,0-0.2,0.1-0.2l0,0c1.2-0.3,2.5-0.7,3.7-1.1c1.2-0.4,2.4-1,3.5-1.6 c1.1-0.6,2.2-1.3,3.2-2.1c1-0.8,1.9-1.7,2.8-2.6l0,0c0.1-0.1,0.1-0.1,0.2,0C1116.2,683.9,1116.2,684,1116.2,684z" fill="#141623"/></g><g id="change4_147"><path d="M1129.5,690.9c-2.6-0.1-5.2-0.9-7.5-2c-1.2-0.6-2.3-1.3-3.3-2.1c-1-0.8-1.9-1.8-2.7-2.8c-0.1-0.1,0-0.2,0-0.2 c0.1-0.1,0.2,0,0.2,0l0,0c0.9,0.9,1.8,1.8,2.9,2.5c1,0.7,2.1,1.4,3.3,1.9c1.1,0.6,2.3,1,3.5,1.4c1.2,0.4,2.5,0.7,3.7,1l0,0 c0.1,0,0.1,0.1,0.1,0.2C1129.7,690.9,1129.6,690.9,1129.5,690.9z" fill="#141623"/></g><g id="change4_148"><path d="M1116.2,702.2l0.1,9.8l0,9.8l0.1,19.6l-0.1,19.6l0,9.8l-0.1,9.8c0,0.1-0.1,0.2-0.2,0.2 c-0.1,0-0.2-0.1-0.2-0.2l-0.1-9.8l0-9.8l-0.1-19.6l0.1-19.6l0-9.8l0.1-9.8c0-0.1,0.1-0.1,0.1-0.1 C1116.1,702.1,1116.2,702.2,1116.2,702.2z" fill="#141623"/></g><g id="change5_21"><circle cx="1119.7" cy="709.8" fill="#fb8875" r="1.3"/></g><g id="change5_22"><circle cx="1119.7" cy="730.6" fill="#fb8875" r="1.3"/></g><g id="change5_23"><circle cx="1119.7" cy="751.5" fill="#fb8875" r="1.3"/></g><g id="change5_24"><circle cx="1119.7" cy="772.4" fill="#fb8875" r="1.3"/></g><g id="change4_149"><ellipse cx="1110.1" cy="644.8" fill="#141623" rx="1.4" ry="1.8"/></g><g id="change5_25"><ellipse cx="1110.7" cy="644.2" fill="#fb8875" rx=".4" ry=".5"/></g><g id="change4_150"><path d="M1110.7,638.4c-1.5,0.7-3,1.5-3.3,0.8s0.6-1.9,2.2-2.6s3.1-0.8,3.4,0S1112.2,637.7,1110.7,638.4z" fill="#141623"/></g><g id="change4_151"><path d="M1121.6,638.6c1.5,0.7,2.8,1.3,3.1,0.6s-0.6-1.9-2.2-2.6c-1.5-0.7-3.1-0.8-3.4,0S1120.1,637.9,1121.6,638.6z" fill="#141623"/></g><g id="change4_152"><path d="M1114.8,643l-0.4,7.9l-0.1,2c0,0.3-0.1,0.7,0,0.9c0.1,0.3,0.2,0.5,0.4,0.7c0.2,0.2,0.4,0.3,0.7,0.4 c0.1,0,0.3,0,0.4,0l0.5,0l2-0.2c0.2,0,0.4,0.1,0.4,0.3c0,0.2-0.1,0.4-0.3,0.4c0,0,0,0,0,0l-2,0.1l-0.5,0c-0.2,0-0.4,0-0.6,0 c-0.4-0.1-0.7-0.3-1-0.6c-0.3-0.3-0.4-0.7-0.5-1c-0.1-0.4,0-0.7,0-1.1l0.2-2l0.6-7.9c0-0.1,0.1-0.2,0.2-0.1 C1114.7,642.9,1114.8,642.9,1114.8,643z" fill="#141623"/></g><g id="change4_153"><path d="M1094.5,646.4c0.4-0.4,1.1-0.5,1.6-0.3c0.6,0.2,1,0.6,1.3,1c0.6,0.9,0.9,2,0.8,3c0,0.1-0.1,0.2-0.2,0.2 c-0.1,0-0.1-0.1-0.1-0.1c-0.2-0.9-0.6-1.8-1.1-2.6c-0.2-0.4-0.6-0.7-0.9-0.8c-0.4-0.2-0.8-0.2-1.2-0.1l0,0c-0.1,0-0.2,0-0.2-0.1 C1094.5,646.5,1094.5,646.5,1094.5,646.4z" fill="#141623"/></g><g id="change4_154"><path d="M1094.9,649.5c-0.2-0.3-0.3-0.7-0.2-1.1c0-0.4,0.2-0.8,0.5-1.1c0.3-0.3,0.7-0.5,1.2-0.5c0.4,0,0.9,0.3,1,0.7 c0,0.1,0,0.2-0.1,0.2c-0.1,0-0.1,0-0.2,0l0,0c-0.2-0.2-0.5-0.2-0.7-0.2c-0.2,0-0.5,0.1-0.6,0.3c-0.4,0.4-0.5,0.9-0.5,1.6 c0,0.1-0.1,0.1-0.1,0.1C1095,649.6,1094.9,649.5,1094.9,649.5z" fill="#141623"/></g><g id="change4_155"><path d="M1123.6,654.2c-0.2,1.6-1.4,2.9-2.8,3.6c-1.4,0.7-3,0.9-4.5,0.9c-1.5,0-3.1-0.3-4.5-1c-1.4-0.7-2.6-1.9-3-3.4 c0-0.1,0-0.2,0.2-0.3c0.1,0,0.2,0,0.3,0.1l0,0c0.6,1.2,1.7,2.2,2.9,2.7c1.3,0.5,2.7,0.8,4.1,0.8c1.4,0,2.8-0.1,4.1-0.6 c1.3-0.5,2.4-1.5,2.7-2.8l0,0c0-0.1,0.1-0.2,0.2-0.1C1123.5,654,1123.6,654.1,1123.6,654.2z" fill="#141623"/></g><g id="change4_156"><path d="M1114.3,660.3c0.4-0.1,0.8-0.2,1.2-0.3c0.4-0.1,0.8-0.1,1.2-0.2c0.4,0,0.8-0.1,1.2-0.1c0.4,0,0.7-0.1,1.1-0.1 l0,0c0.1,0,0.3,0.1,0.3,0.2c0,0.1,0,0.2-0.1,0.2c-0.3,0.3-0.8,0.5-1.2,0.6c-0.4,0.1-0.8,0.2-1.2,0.2c-0.4,0-0.8,0.1-1.2,0 c-0.4,0-0.8-0.1-1.2-0.2c-0.1,0-0.2-0.1-0.1-0.2C1114.2,660.4,1114.2,660.4,1114.3,660.3z" fill="#141623"/></g><g id="change4_157"><path d="M1135,648.7c0,0,0.6-2.4,2.1-2.2c1.5,0.3,1.5,2.5,1,3.9c-0.5,1.4-1.5,2.1-3.1,1.8V648.7z" fill="#141623" opacity=".1"/></g><g id="change4_158"><path d="M1098.1,648.7c0,0-0.6-2.4-2.1-2.2c-1.5,0.3-1.5,2.5-1,3.9c0.5,1.4,1.5,2.1,3.1,1.8V648.7z" fill="#141623" opacity=".1"/></g><g id="change4_159"><path d="M1069.8 780.8H1162.8999999999999V841.0999999999999H1069.8z" fill="#141623"/></g><g id="change4_160"><path d="M1123.6 804.6H1162.8999999999999V917H1123.6z" fill="#141623"/></g><g id="change4_161"><circle cx="1143.3" cy="917.1" fill="#141623" r="19.7"/></g><g id="change4_162"><circle cx="1143.3" cy="804.6" fill="#141623" r="19.7"/></g><g id="change4_163"><path d="M1123.6 917.1H1162.8999999999999V1053.4H1123.6z" fill="#141623" transform="rotate(-180 1143.26 985.214)"/></g><g id="change4_164"><circle cx="1143.3" cy="917.1" fill="#141623" r="19.7"/></g><g id="change4_165"><path d="M1109.1 917.4L1069.8 917.1 1069.8 804.6 1109.1 804.9z" fill="#141623"/></g><g id="change4_166"><circle cx="1089.5" cy="917.1" fill="#141623" r="19.7"/></g><g id="change4_167"><circle cx="1089.5" cy="804.6" fill="#141623" r="19.7"/></g><g id="change4_168"><path d="M1069.8 917.1H1109.1V1053.4H1069.8z" fill="#141623" transform="rotate(-180 1089.5 985.214)"/></g><g id="change4_169"><circle cx="1089.5" cy="917.1" fill="#141623" r="19.7"/></g><g id="change4_170"><path d="M1042.1 692.2H1067.6999999999998V765.6H1042.1z" fill="#141623" transform="rotate(28.89 1055.01 728.935)"/></g><g id="change4_171"><circle cx="1072.7" cy="696.8" fill="#141623" r="12.8"/></g><g id="change4_172"><circle cx="1037.3" cy="760.9" fill="#141623" r="12.8"/></g><g id="change4_173"><path d="M1101.4,677.7v175.5l-43.7-13.5l7.6-57.1c1.2-8.8,1.2-17.7,0-26.4l-5.5-52c-1.3-10.2,0.4-19.3,9.4-20.8 C1070,683.3,1101.4,677.7,1101.4,677.7z" fill="#141623"/></g><g id="change4_174"><path d="M1130.7,677.7v175.5l43.7-13.5l-7.6-57.1c-1.2-8.8-1.2-17.7,0-26.4l6.9-52c1.3-10.3-2.7-19.2-12.2-20.5 C1160.7,683.6,1130.7,677.7,1130.7,677.7z" fill="#141623"/></g><g id="change4_175"><circle cx="1092.7" cy="1053.3" fill="#141623" r="10"/></g><g id="change4_176"><path d="M1102.7,1053.3v26.7h-46.7c-0.9,0-1.5-1-1-1.8c2.1-3.7,8-12,19.2-16.4c3.8-1.5,6.9-4.5,8.4-8.3l0.1-0.2 H1102.7z" fill="#141623"/></g><g id="change5_26"><path d="M1080.9,1069.2c-0.2,0-0.4-0.1-0.4-0.3c-3.2-6.2-9.8-4.8-10-4.8c-0.3,0.1-0.5-0.1-0.6-0.4 c-0.1-0.3,0.1-0.5,0.4-0.6c0.1,0,7.6-1.6,11.1,5.3c0.1,0.2,0,0.5-0.2,0.7C1081,1069.2,1081,1069.2,1080.9,1069.2z" fill="#fb8875"/></g><g id="change5_27"><path d="M1086.7,1066.6c-0.2,0-0.4-0.1-0.4-0.3c-3.2-6.2-10-4.8-10-4.8c-0.3,0.1-0.5-0.1-0.6-0.4 c-0.1-0.3,0.1-0.5,0.4-0.6c0.1,0,7.6-1.6,11.1,5.3c0.1,0.2,0,0.5-0.2,0.7C1086.9,1066.6,1086.8,1066.6,1086.7,1066.6z" fill="#fb8875"/></g><g id="change4_177"><circle cx="1144.1" cy="1053.3" fill="#141623" r="10"/></g><g id="change4_178"><path d="M1134,1053.3v26.7h46.7c0.9,0,1.5-1,1-1.8c-2.1-3.7-8-12-19.2-16.4c-3.8-1.5-6.9-4.5-8.4-8.3l-0.1-0.2H1134z" fill="#141623"/></g><g id="change5_28"><path d="M1155.9,1069.2c-0.1,0-0.2,0-0.2-0.1c-0.2-0.1-0.3-0.4-0.2-0.7c3.5-6.9,11.1-5.3,11.1-5.3 c0.3,0.1,0.4,0.3,0.4,0.6c-0.1,0.3-0.3,0.4-0.6,0.4c-0.3-0.1-6.9-1.4-10,4.8C1156.2,1069.1,1156.1,1069.2,1155.9,1069.2z" fill="#fb8875"/></g><g id="change5_29"><path d="M1150,1066.6c-0.1,0-0.2,0-0.2-0.1c-0.2-0.1-0.3-0.4-0.2-0.7c3.5-6.9,11.1-5.3,11.1-5.3 c0.3,0.1,0.4,0.3,0.4,0.6c-0.1,0.3-0.3,0.4-0.6,0.4c-0.3-0.1-6.9-1.4-10,4.8C1150.4,1066.5,1150.2,1066.6,1150,1066.6z" fill="#fb8875"/></g><g id="change4_179"><ellipse cx="1121.9" cy="644.8" fill="#141623" rx="1.4" ry="1.8"/></g><g id="change5_30"><ellipse cx="1122.4" cy="644.2" fill="#fb8875" rx=".4" ry=".5"/></g><g id="change4_180"><circle cx="1116" cy="712.5" fill="#141623" opacity=".3" r="32.6"/></g><g id="change2_33"><circle cx="1116" cy="705.7" fill="#fd871b" r="32.6"/></g><g id="change3_38"><circle cx="1116" cy="705.7" fill="#fcc03e" r="25"/></g><g id="change4_181"><path d="M1129.2,689.5l-8.7,15.8h5.5v3.8h-6.6v2.8h6.6v3.7h-6.6v9.4h-7.1v-9.4h-6.4v-3.7h6.4v-2.8h-6.4v-3.8h5.4 l-8.4-15.8v-1.7h8v1.7h-0.1c3.8,8.9,4.8,10.7,5.4,12.4h0.1c0.4-1.3,1.6-3.8,5.4-12.4h-0.3v-1.7h8V689.5z" fill="#141623" opacity=".1"/></g><g id="change2_34"><path d="M1129.2,687.9h-7.6c-3.8,8.6-5,11.1-5.4,12.4h-0.1c-0.6-1.7-1.6-3.5-5.4-12.4h-7.9l8.4,15.8h-5.4v3.8h6.4v2.8 h-6.4v3.7h6.4v9.4h7.1V714h6.6v-3.7h-6.6v-2.8h6.6v-3.8h-5.5L1129.2,687.9z" fill="#fd871b"/></g><g id="change5_31"><path d="M1079.2,700.4c0,0,6.7-2.4,8.6-2.3c1.9,0.1,8.3,1.3,8.9,2.4c0.6,1.2,0,1.4-1.4,1.7c-1.4,0.3-7.7,0-7.7,0 s5.3,2.5,6.2,3.4s2.2,4.8,2,5.7c-0.2,1-0.6,1.8-0.6,1.8s0.3,1.7-0.5,2.4c-0.8,0.7-4.1-1-4.1-1s-1.3,1.6-2.8,1.8s-3.4-0.4-3.4-0.4 s1,4.3-3.3,6.1c0,0-1.7,3.6-1.6,3.8c0,0.2-8.8-7-8.8-7L1079.2,700.4z" fill="#fb8875"/></g><g id="change5_32"><path d="M1084.5,697.1l-0.4,1.7l-5,1.6c0,0,1-2.5,2.7-2.7S1084.5,697.1,1084.5,697.1z" fill="#fb8875"/></g><g id="change4_182"><path d="M1087.3,705.7c0.3-0.1,0.5,0,0.8,0.1c0.2,0.1,0.5,0.2,0.7,0.2l1.4,0.5c0.9,0.4,1.8,0.7,2.8,1.2 c0.3,0.2,0.4,0.5,0.6,0.7c0.1,0.2,0.3,0.4,0.4,0.7c0.2,0.5,0.4,0.9,0.6,1.4c0.2,0.5,0.4,0.9,0.5,1.4c0.1,0.2,0.2,0.5,0.2,0.7 l0.1,0.4c0,0.1,0.1,0.2-0.1,0.4c-0.2-0.1-0.3-0.2-0.3-0.3l-0.2-0.3l-0.3-0.7l-0.6-1.3c-0.2-0.4-0.4-0.9-0.7-1.3 c-0.1-0.2-0.2-0.4-0.3-0.6c-0.1-0.2-0.3-0.4-0.3-0.5c-0.8-0.5-1.7-0.9-2.6-1.3l-1.3-0.6c-0.2-0.1-0.4-0.2-0.7-0.3 C1087.7,706,1087.5,706,1087.3,705.7z" fill="#141623"/></g><g id="change4_183"><path d="M1090.7,714.6c-0.3,0-0.4-0.2-0.5-0.3c-0.1-0.1-0.3-0.3-0.4-0.4c-0.2-0.3-0.5-0.6-0.7-0.8 c-0.5-0.5-1.1-1.1-1.6-1.3c-0.6-0.2-1.4-0.4-2-0.6l-1.1-0.3c-0.2,0-0.4-0.1-0.5-0.1c-0.2-0.1-0.4,0-0.5-0.3 c0.2-0.3,0.4-0.1,0.6-0.1c0.2,0,0.4,0,0.6,0c0.4,0,0.7,0.1,1.1,0.2c0.8,0.1,1.5,0.2,2.3,0.6c0.7,0.5,1.2,1.1,1.7,1.6 c0.2,0.3,0.5,0.6,0.7,0.9c0.1,0.2,0.2,0.3,0.3,0.5C1090.6,714.2,1090.8,714.3,1090.7,714.6z" fill="#141623"/></g><g id="change4_184"><path d="M1082.2,713.7c0.3-0.1,0.2,0.1,0.3,0.1c0.1,0.1,0.1,0.1,0.2,0.2c0.1,0.1,0.3,0.2,0.4,0.3 c0.3,0.2,0.6,0.3,1,0.3c0.3,0.1,0.7,0.2,1,0.3l0.5,0.1c0.1,0,0.2,0,0.3,0.1c0.1,0.1,0.2-0.1,0.3,0.2c-0.1,0.3-0.2,0.2-0.3,0.2 c-0.1,0-0.2,0-0.3,0c-0.2,0-0.4,0-0.6,0c-0.4,0-0.8-0.1-1.2-0.2c-0.4-0.1-0.7-0.3-1-0.6c-0.2-0.1-0.3-0.3-0.4-0.4 c-0.1-0.1-0.1-0.2-0.2-0.3C1082.2,713.9,1082.1,713.9,1082.2,713.7z" fill="#141623"/></g><g id="change4_185"><path d="M1084.7,716.3c-0.2,0.2-0.2,0.1-0.2,0.1c0,0-0.1,0-0.1,0c-0.1,0-0.2-0.1-0.2-0.1c-0.2-0.1-0.3-0.2-0.5-0.3 c-0.1-0.1-0.2-0.3-0.3-0.5c0-0.1,0-0.2,0-0.3c0-0.1,0-0.1,0-0.2c0.1,0-0.1-0.1,0.2-0.1c0.3,0.1,0.2,0.1,0.2,0.1c0,0,0,0.1,0.1,0.1 l0.1,0.2c0.1,0.1,0.2,0.2,0.2,0.3c0.1,0.1,0.1,0.2,0.2,0.3l0.2,0.1c0,0,0.1,0.1,0.1,0.1C1084.7,716.1,1084.8,716,1084.7,716.3z" fill="#141623"/></g><g id="change4_186"><path d="M1084.7,701.5c0.2-0.2,0.2-0.1,0.3-0.1c0.1,0,0.2,0,0.2,0l0.5,0.1c0.3,0.1,0.6,0.1,0.9,0.2 c0.3,0.1,0.6,0.2,0.9,0.3c0.1,0.1,0.3,0.1,0.4,0.2c0.1,0,0.1,0.1,0.2,0.1c0.1,0.1,0.2,0,0.2,0.3c-0.2,0.3-0.2,0.1-0.3,0.1 c-0.1,0-0.2,0-0.2,0c-0.2,0-0.3-0.1-0.5-0.1c-0.3-0.1-0.6-0.1-0.9-0.2c-0.3-0.1-0.6-0.2-0.9-0.4l-0.4-0.2c-0.1,0-0.1-0.1-0.2-0.1 C1084.8,701.7,1084.7,701.7,1084.7,701.5z" fill="#141623"/></g><g id="change4_187"><path d="M1084.1,698.8c0,0.3-0.1,0.2-0.2,0.2c-0.1,0-0.1,0-0.2,0.1l-0.4,0.1c-0.2,0.1-0.5,0.2-0.7,0.2 c-0.2,0.1-0.5,0.1-0.7,0.1c-0.1,0-0.3,0-0.4,0c-0.1,0-0.1,0-0.2,0c-0.1,0-0.1,0.1-0.2-0.2c0-0.3,0.1-0.2,0.1-0.3 c0.1,0,0.1-0.1,0.2-0.1c0.1,0,0.2-0.1,0.4-0.1c0.2-0.1,0.5-0.1,0.7-0.2c0.3,0,0.5,0,0.8,0l0.4,0c0.1,0,0.1,0,0.2,0 C1084,698.6,1084,698.5,1084.1,698.8z" fill="#141623"/></g><g id="change4_188"><path d="M1043.9 710.6H1069.5V768.5H1043.9z" fill="#141623" transform="rotate(42.456 1056.78 739.612)"/></g><g id="change4_189"><circle cx="1037.3" cy="760.9" fill="#141623" r="12.8"/></g><g id="change4_190"><path d="M1165.3 692.2H1190.8999999999999V765.6H1165.3z" fill="#141623" transform="scale(-1) rotate(-28.89 -2829.727 4573.997)"/></g><g id="change4_191"><circle cx="1160.4" cy="696.8" fill="#141623" r="12.8"/></g><g id="change4_192"><circle cx="1195.8" cy="760.9" fill="#141623" r="12.8"/></g><g id="change5_33"><path d="M1153.9,700.4c0,0-6.7-2.4-8.6-2.3c-1.9,0.1-8.3,1.3-8.9,2.4c-0.6,1.2,0,1.4,1.4,1.7c1.4,0.3,7.7,0,7.7,0 s-5.3,2.5-6.2,3.4s-2.2,4.8-2,5.7c0.2,1,0.6,1.8,0.6,1.8s-0.3,1.7,0.5,2.4c0.8,0.7,4.1-1,4.1-1s1.3,1.6,2.8,1.8 c1.5,0.2,3.4-0.4,3.4-0.4s-1,4.3,3.3,6.1c0,0,1.7,3.6,1.6,3.8c0,0.2,8.8-7,8.8-7L1153.9,700.4z" fill="#fb8875"/></g><g id="change5_34"><path d="M1148.6,697.1l0.4,1.7l5,1.6c0,0-1-2.5-2.7-2.7S1148.6,697.1,1148.6,697.1z" fill="#fb8875"/></g><g id="change4_193"><path d="M1137.8,713.3c-0.1-0.3,0-0.5,0.1-0.8c0.1-0.2,0.2-0.5,0.2-0.7c0.2-0.5,0.4-0.9,0.6-1.4 c0.2-0.5,0.4-0.9,0.6-1.4c0.1-0.2,0.2-0.5,0.4-0.7c0.1-0.2,0.2-0.4,0.6-0.7c0.9-0.6,1.8-0.9,2.7-1.2c0.5-0.2,0.9-0.4,1.4-0.5 c0.2-0.1,0.5-0.2,0.7-0.2l0.4-0.1c0.1,0,0.2-0.1,0.4,0c-0.1,0.2-0.2,0.3-0.3,0.3l-0.3,0.2c-0.2,0.1-0.4,0.2-0.7,0.3l-1.3,0.6 c-0.9,0.4-1.8,0.8-2.6,1.2c-0.1,0-0.2,0.3-0.4,0.4c-0.1,0.2-0.2,0.4-0.4,0.6c-0.2,0.4-0.5,0.9-0.7,1.3l-0.6,1.3 c-0.1,0.2-0.2,0.4-0.3,0.7C1138.1,712.9,1138.1,713.2,1137.8,713.3z" fill="#141623"/></g><g id="change4_194"><path d="M1142.4,714.6c-0.1-0.3,0.1-0.4,0.2-0.6c0.1-0.2,0.2-0.3,0.3-0.5c0.2-0.3,0.5-0.6,0.7-0.9 c0.5-0.6,0.9-1.2,1.7-1.6c0.8-0.4,1.5-0.4,2.3-0.6c0.4-0.1,0.7-0.1,1.1-0.2c0.2,0,0.4,0,0.6,0c0.2,0,0.4-0.1,0.6,0.1 c-0.1,0.3-0.3,0.2-0.5,0.3c-0.2,0-0.4,0.1-0.5,0.1l-1.1,0.3c-0.7,0.2-1.5,0.4-2.1,0.6c-0.5,0.3-1.1,0.8-1.6,1.3 c-0.3,0.3-0.5,0.5-0.7,0.8c-0.1,0.1-0.2,0.3-0.4,0.4C1142.8,714.4,1142.7,714.6,1142.4,714.6z" fill="#141623"/></g><g id="change4_195"><path d="M1146.9,715.3c0.1-0.3,0.2-0.2,0.3-0.2c0.1,0,0.2,0,0.3-0.1l0.5-0.1c0.4-0.1,0.7-0.2,1-0.3 c0.3-0.1,0.6-0.2,0.9-0.4c0.1-0.1,0.3-0.2,0.4-0.3l0.2-0.2l0.1-0.1c0,0,0.1,0,0.2,0c0.2,0.2,0,0.3,0,0.4c0,0.1-0.1,0.2-0.2,0.3 c-0.1,0.2-0.3,0.3-0.4,0.4c-0.3,0.3-0.7,0.5-1.1,0.6c-0.4,0.1-0.8,0.1-1.2,0.1c-0.2,0-0.4,0-0.6,0c-0.1,0-0.2,0-0.3,0 C1147.1,715.4,1147,715.5,1146.9,715.3z" fill="#141623"/></g><g id="change4_196"><path d="M1149.4,714.8c0.3,0,0.2,0.1,0.2,0.1c0,0,0,0.1,0,0.1c0,0.1,0,0.2,0,0.3c0,0.2-0.1,0.4-0.2,0.6 c-0.1,0.2-0.3,0.3-0.4,0.3c-0.1,0-0.2,0.1-0.2,0.1c0,0-0.1,0-0.1,0c-0.1,0,0,0.1-0.2-0.1c-0.1-0.3,0-0.2,0-0.3c0,0,0-0.1,0.1-0.1 c0-0.1,0.1-0.1,0.1-0.2c0.1-0.1,0.2-0.2,0.3-0.3c0.1-0.1,0.2-0.2,0.3-0.3c0-0.1,0.1-0.1,0.1-0.2c0,0,0-0.1,0-0.1 C1149.2,714.9,1149.2,714.9,1149.4,714.8z" fill="#141623"/></g><g id="change4_197"><path d="M1148.4,701.5c0,0.3-0.1,0.2-0.2,0.3c-0.1,0-0.1,0.1-0.2,0.1l-0.4,0.2c-0.3,0.1-0.6,0.3-0.9,0.4 c-0.3,0.1-0.6,0.2-0.9,0.2c-0.2,0-0.3,0.1-0.5,0.1c-0.1,0-0.2,0-0.2,0c-0.1,0-0.1,0.1-0.3-0.1c0-0.3,0.1-0.2,0.2-0.3 c0.1,0,0.1-0.1,0.2-0.1c0.1-0.1,0.3-0.1,0.4-0.2c0.3-0.1,0.6-0.2,0.9-0.3c0.3-0.1,0.6-0.1,0.9-0.2l0.5-0.1c0.1,0,0.2,0,0.2,0 C1148.2,701.4,1148.2,701.2,1148.4,701.5z" fill="#141623"/></g><g id="change4_198"><path d="M1149,698.8c0.1-0.2,0.2-0.1,0.2-0.2c0.1,0,0.1,0,0.2,0l0.4,0c0.3,0,0.5,0,0.8,0c0.3,0,0.5,0.1,0.7,0.2 c0.1,0,0.2,0.1,0.4,0.1c0.1,0,0.1,0.1,0.2,0.1c0.1,0.1,0.1,0,0.1,0.3c-0.1,0.3-0.2,0.1-0.2,0.2c-0.1,0-0.1,0-0.2,0 c-0.1,0-0.3,0-0.4,0c-0.3,0-0.5,0-0.7-0.1c-0.2-0.1-0.5-0.1-0.7-0.2l-0.4-0.1c-0.1,0-0.1,0-0.2-0.1 C1149.1,699,1149,699,1149,698.8z" fill="#141623"/></g><g id="change4_199"><path d="M1163.5 710.6H1189.1V768.5H1163.5z" fill="#141623" transform="rotate(137.544 1176.362 739.595)"/></g><g id="change4_200"><circle cx="1195.8" cy="760.9" fill="#141623" r="12.8"/></g><g id="change4_201"><path d="M1134.5,650.1c-0.1-1,0.2-2.1,0.8-3c0.3-0.4,0.8-0.8,1.3-1c0.5-0.2,1.2-0.1,1.6,0.3c0.1,0.1,0.1,0.2,0,0.2 c0,0.1-0.1,0.1-0.2,0l0,0c-0.4-0.2-0.9-0.1-1.2,0.1c-0.4,0.2-0.7,0.5-1,0.8c-0.5,0.7-0.9,1.6-1.1,2.6c0,0.1-0.1,0.1-0.2,0.1 C1134.6,650.3,1134.5,650.2,1134.5,650.1z" fill="#141623"/></g><g id="change4_202"><path d="M1135.5,647.5c0.1-0.4,0.6-0.7,1-0.7c0.4-0.1,0.9,0.2,1.2,0.4c0.3,0.3,0.5,0.7,0.5,1.1c0,0.4,0,0.8-0.2,1.1 c0,0.1-0.2,0.1-0.2,0.1c-0.1,0-0.1-0.1-0.1-0.2c0-0.7-0.1-1.2-0.5-1.6c-0.2-0.2-0.4-0.3-0.6-0.3c-0.2,0-0.5,0-0.8,0.2l0,0 c-0.1,0.1-0.2,0-0.2,0C1135.4,647.6,1135.4,647.6,1135.5,647.5z" fill="#141623"/></g><g id="change4_203"><path d="M1096.4,643.2c0,0-5.7-15.6-2.7-18.9c3-3.2,7.2-3.2,7.2-3.2s2.6-7.9,12.6-7.9s16.7,3.9,22.1,8.4 c5.4,4.5,5.7,5.4,5.7,5.4h-4.2l3.4,7.9l-4.1-0.7l-1.2,10.5l-3.6-0.5l-0.8-14.6l-4.1-1.5l2.6,2.3l-16.8-6l3.6,4l-12.4-2.5 l-3.5,17.8l-2,0.7L1096.4,643.2z" fill="#141623"/></g><g id="change3_39"><path d="M1241.3,1041.7l10.1,51.8h-27.8l-2.6-2.2c-5.7-4.9-10.1-11-13-17.9l-13.4-31.6H1241.3z" fill="#fcc03e"/></g><g id="change2_35"><path d="M1166.3,1041.7l10.1,51.8h-27.8l-2.6-2.2c-5.7-4.9-10.1-11-13-17.9l-13.4-31.6H1166.3z" fill="#fd871b"/></g><g id="change2_36"><path d="M999.8,1041.7l-10.1,51.8h27.8l2.6-2.2c5.7-4.9,10.1-11,13-17.9l13.4-31.6H999.8z" fill="#fd871b"/></g><g id="change3_40"><path d="M1176.9,1064.5h-125c-60.7,0-109.8-49.2-109.8-109.8v0c0-60.7,49.2-109.8,109.8-109.8h125 c60.7,0,109.8,49.2,109.8,109.8v0C1286.7,1015.3,1237.5,1064.5,1176.9,1064.5z" fill="#fcc03e"/></g><g id="change2_37"><path d="M978.6,938.9H950v73.4h28.7c12.3,0,22.3-16.4,22.3-36.7C1000.9,955.3,990.9,938.9,978.6,938.9z" fill="#fd871b"/></g><g id="change3_41"><ellipse cx="950" cy="975.6" fill="#fcc03e" rx="22.3" ry="36.7"/></g><g id="change4_204"><ellipse cx="1018" cy="920.8" fill="#141623" opacity=".9" rx="6.9" ry="9.2"/></g><g id="change4_205"><ellipse cx="971.2" cy="920.8" fill="#141623" opacity=".9" rx="6.9" ry="9.2"/></g><g id="change4_206"><ellipse cx="934.7" cy="974.2" fill="#141623" opacity=".9" rx="2.4" ry="5.9"/></g><g id="change4_207"><ellipse cx="959.8" cy="974.2" fill="#141623" opacity=".9" rx="2.4" ry="5.9"/></g><g id="change2_38"><path d="M988.9,890.8c0,0-34.3-23.6-29-42.9c0,0,36.2-4.5,43.4,28L988.9,890.8z" fill="#fd871b"/></g><g id="change3_42"><path d="M964.3,890.8c0,0-9.7-23.6-4.5-42.9c0,0,21.9,10.4,29,42.9H964.3z" fill="#fcc03e"/></g><g id="change2_39"><path d="M1060.5,890.8c0,0-34.3-23.6-29-42.9c0,0,36.2-4.5,43.4,28L1060.5,890.8z" fill="#fd871b"/></g><g id="change3_43"><path d="M1035.9,890.8c0,0-9.7-23.6-4.5-42.9c0,0,21.9,10.4,29,42.9H1035.9z" fill="#fcc03e"/></g><g id="change2_40"><path d="M1039.7,890.8c-1.2-3.1-5.2-15.3-3.1-25.8c3.6,2.3,13.2,9.7,17.2,25.8H1039.7z" fill="#fd871b" opacity=".3"/></g><g id="change4_208"><path d="M1035.9,890.8c-0.5-0.3-0.8-0.7-0.9-1.1l-0.5-1.3c-0.4-0.8-0.7-1.7-1-2.6c-0.6-1.7-1.1-3.5-1.6-5.3 c-1-3.5-1.8-7.1-2.4-10.8c-0.5-3.7-0.6-7.4-0.5-11.1c0.1-1.8,0.2-3.7,0.6-5.5c0.1-0.9,0.3-1.8,0.6-2.7l0.4-1.3 c0.1-0.4,0.3-0.9,0.8-1.2c0.3,0.6,0.3,1,0.2,1.5l-0.2,1.3c-0.2,0.9-0.2,1.8-0.3,2.7c-0.2,1.8-0.3,3.6-0.3,5.4 c0,3.6,0.3,7.2,0.7,10.8c0.4,3.6,1,7.1,1.8,10.7c0.4,1.8,0.9,3.5,1.4,5.2l0.8,2.6l0.4,1.3C1036,889.8,1036.1,890.3,1035.9,890.8z" fill="#141623"/></g><g id="change2_41"><path d="M969.6,890.8c-1.2-3.1-5.2-15.3-3.1-25.8c3.6,2.3,13.2,9.7,17.2,25.8H969.6z" fill="#fd871b" opacity=".3"/></g><g id="change3_44"><path d="M1074.8,1041.7l-10.1,51.8h27.8l2.6-2.2c5.7-4.9,10.1-11,13-17.9l13.4-31.6H1074.8z" fill="#fcc03e"/></g><g id="change4_209"><path d="M1148.5,855.3H1096c-3.5,0-6.4-2.9-6.4-6.4v0h65.4v0C1154.9,852.5,1152,855.3,1148.5,855.3z" fill="#141623"/></g><g id="change2_42"><path d="M1193.7,884.6c-10.1,0-15.1,0-25.2,0c0.8,14.3-0.4,27.5-3,41.5c-0.1,0-0.1,0-0.2,0 c-8.9-15.1-21-28.5-32.7-41.5c-8.7,0-17.5,0-26.2,0c16.4,16.5,31.5,33.7,44.7,52.9c-7.2,0-10.9,0-18.1,0c0.7,4.9,1,7.4,1.5,12.3 c8.6,0,12.9,0,21.4,0c0.3,3.7,0.5,5.6,0.7,9.3c-8.6,0-12.8,0-21.4,0c0.3,4.9,0.4,7.4,0.5,12.3c8.5,0,12.8,0,21.4,0 c0.1,10.4,0.2,20.7,0.2,31.1c9.4,0,14.1,0,23.5,0c0-10.4,0-20.7-0.1-31.1c8.7,0,13.1,0,21.9,0c-0.1-4.9-0.2-7.4-0.4-12.3 c-8.8,0-13.1,0-21.9,0c-0.2-3.7-0.3-5.6-0.7-9.3c8.8,0,13.2,0,21.9,0c-0.4-4.9-0.7-7.4-1.4-12.3c-7.4,0-11,0-18.4,0 C1188.9,921,1193.8,902.8,1193.7,884.6z" fill="#fd871b"/></g><g id="change4_210"><path d="M1145.8 1022.4L1145.8 1091.1 1148.6 1093.5 1176.4 1093.5 1175.4 1088z" fill="#141623" opacity=".2"/></g><g id="change3_45"><ellipse cx="1227.2" cy="1035.7" fill="#fcc03e" rx="73.7" ry="87.3" transform="rotate(-47.436 1227.285 1035.733)"/></g><g id="change2_43"><ellipse cx="1236.2" cy="1026.7" fill="#fd871b" rx="73.7" ry="87.3" transform="rotate(-47.436 1236.281 1026.737)"/></g><g id="change3_46"><ellipse cx="1236.2" cy="1026.7" fill="#fcc03e" rx="56.3" ry="66.8" transform="rotate(-47.436 1236.281 1026.737)"/></g><g id="change4_211"><path d="M1261.8,987.1l-14.9,38.9h13.5l1.6,9.2h-16.2l1.2,6.9h16.2l1.6,9.2h-16.2l4,23.2h-17.5l-4-23.2h-15.8 l-1.6-9.2h15.8l-1.2-6.9h-15.8l-1.6-9.2h13.3l-27.3-38.9l-0.7-4.1h19.6l0.7,4.1h-0.2c13.1,21.9,16.2,26.2,18.3,30.4h0.1 c0.6-3.1,2.4-9.2,8.1-30.4h-0.9l-0.7-4.1h19.6L1261.8,987.1z" fill="#141623" opacity=".1"/></g><g id="change2_44"><path d="M1261.1,983h-18.7c-5.7,21.1-7.5,27.3-8.1,30.4h-0.1c-2.2-4.2-5.3-8.5-18.3-30.4h-19.4l27.3,38.9h-13.3 l1.6,9.2h15.8l1.2,6.9h-15.8l1.6,9.2h15.8l4,23.2h17.5l-4-23.2h16.2l-1.6-9.2h-16.2l-1.2-6.9h16.2l-1.6-9.2h-13.5L1261.1,983z" fill="#fd871b"/></g><g id="change4_212"><path d="M1278.4,966.8c-3-2.2-6.1-4.3-9.3-6.2c-3.2-1.9-6.5-3.6-9.9-5.2c-6.8-3.1-13.9-5.4-21.2-6.7 c-7.3-1.3-14.8-1.8-22.2-1.2c-1.9,0.1-3.7,0.4-5.5,0.6l-2.7,0.5c-0.9,0.1-1.8,0.3-2.7,0.5c-3.6,0.7-7.2,1.8-10.6,3.1 c-3.5,1.3-6.8,2.9-10,4.7c-3.2,1.8-6.2,4-9.1,6.3c-1.4,1.2-2.8,2.5-4.1,3.7c-1.3,1.3-2.6,2.7-3.8,4.1c-2.4,2.8-4.7,5.7-6.9,8.8 c-4.3,6.1-7.8,12.7-10.2,19.7c-1.2,3.5-2.2,7.1-2.8,10.8c-0.6,3.7-0.9,7.4-1,11.1l0,0c0,0.3-0.2,0.4-0.5,0.4 c-0.2,0-0.4-0.2-0.4-0.5c0-3.8,0.2-7.6,0.8-11.3c0.6-3.7,1.5-7.4,2.6-11c2.4-7.2,5.9-14,10.2-20.2c1-1.6,2.2-3.1,3.3-4.6 c1.2-1.5,2.3-3,3.6-4.4c1.2-1.5,2.5-2.8,3.8-4.2c1.4-1.3,2.7-2.7,4.2-3.9c2.9-2.5,6-4.7,9.3-6.6c3.3-1.9,6.7-3.6,10.3-4.9 c3.6-1.3,7.2-2.4,10.9-3.2c0.9-0.2,1.9-0.4,2.8-0.5l2.8-0.5c1.9-0.2,3.8-0.5,5.7-0.6c7.6-0.5,15.2-0.1,22.6,1.4 c7.4,1.5,14.6,3.9,21.5,7.2c3.4,1.6,6.7,3.5,9.9,5.5c3.2,2,6.3,4.2,9.2,6.5c0.2,0.1,0.2,0.4,0.1,0.5 C1278.8,966.9,1278.6,966.9,1278.4,966.8L1278.4,966.8z" fill="#141623"/></g><g id="change3_47"><path d="M531.2,1068.5H252.9c-15,0-27.2-12.2-27.2-27.2V873.8c0-15,12.2-27.2,27.2-27.2h278.2 c15,0,27.2,12.2,27.2,27.2v167.4C558.4,1056.3,546.2,1068.5,531.2,1068.5z" fill="#fcc03e"/></g><g id="change1_33"><path d="M225.7,1003.9v37.3c0,15,12.2,27.2,27.2,27.2h278.2c15,0,27.2-12.2,27.2-27.2v-85.8L225.7,1003.9z" fill="#f1dbce" opacity=".3"/></g><g id="change4_213"><path d="M225.7 888.5H558.4V934.7H225.7z" fill="#141623"/></g><g id="change1_34"><path d="M251.6 954.6H385.4V987.4H251.6z" fill="#f1dbce" opacity=".5"/></g><g id="change1_35"><path d="M398.7 954.6H532.5V987.4H398.7z" fill="#f1dbce" opacity=".5"/></g><g id="change1_36"><circle cx="452.5" cy="1021.3" fill="#f1dbce" r="20.2"/></g><g id="change2_45"><circle cx="489.2" cy="1021.3" fill="#fd871b" r="20.2"/></g><g id="change4_214"><path d="M663.4,1089.5c3.5,0.6,3.6,5,0.1,5.7c-20,4.1-58.2,10.4-94.6,8.6c-52.7-2.6-112.3-2.3-130.7-5.8 c-4.9-0.9-9.1-1.8-12.6-2.5c-3.6-0.8-3.3-5.2,0.3-5.7c20.1-2.7,57.3-7,90.7-7c48.7,0,42.2-2.2,62.6-3.7 C594.1,1078.2,639.8,1085.5,663.4,1089.5z" fill="#141623" opacity=".3"/></g><g id="change4_215"><path d="M631.4,739.9c0,0,10,16.3,4.8,22.5l-11.5-10.8L631.4,739.9z" fill="#141623"/></g><g id="change5_35"><path d="M632.3 737.2L627.4 752.2 617.2 740.4 624.7 728.8z" fill="#fb8875"/></g><g id="change5_36"><path d="M624.1,732.3c0,0,1.6-11.1,3.1-14.3c1.6-3.2,4.8-4.7,5.7-4.8c0.9-0.1,3.5,0.6,3.5,0.6l6.9,0.4 c1,0.1,1.9,0.4,2.6,1.1c0.7,0.6,0.5,2.2-0.4,3.3c-1.8,2-0.7,3-0.9,4.2c-0.2,1.7-2,1.5-2.1,1.9s0.3,3-0.7,5c-1,2-1.5-0.3-2.2,2.8 s-6.1,5.8-6.1,5.8S626.2,740.4,624.1,732.3z" fill="#fb8875"/></g><g id="change4_216"><path d="M631.2,733.7l-0.2-0.1c-0.7-0.3-1.1-1.1-0.8-1.9l13-31.3c0.3-0.7,1.1-1.1,1.9-0.8l0.2,0.1 c0.7,0.3,1.1,1.1,0.8,1.9l-13,31.3C632.8,733.7,631.9,734,631.2,733.7z" fill="#141623"/></g><g id="change5_37"><path d="M626.9,719.1c0.1-1.2,0.8-2.3,1.9-3c1-0.6,2.5-1.5,3.9-2.7c2.6-2.2,4.4-4.4,5.4-4c1,0.3,1.2,2-0.2,4.2 s-4.7,4.9-5.2,6.3C632.2,721.2,626.5,723.7,626.9,719.1z" fill="#fb8875"/></g><g id="change4_217"><path d="M645.4,718.7c-0.1,0.4-0.5,0.6-0.8,0.9c-0.3,0.3-0.6,0.5-0.9,0.8c-0.6,0.5-1.2,1-1.8,1.6 c-0.5,0.6-1.1,1.2-1.7,1.7c-0.3,0.3-0.6,0.5-1,0.8c-0.4,0.2-0.8,0.3-1.4,0.3c-0.3,0-0.6-0.1-0.8-0.4c-0.2-0.2-0.3-0.5-0.3-0.8 c0-0.5,0.1-0.9,0.2-1.3c0.3-0.8,0.7-1.5,1.1-2.2c0.5-0.7,1-1.3,1.6-1.8c0.3-0.3,0.6-0.5,0.9-0.8c0.3-0.2,0.6-0.6,1.1-0.6 c-0.1,0.5-0.5,0.6-0.8,0.9c-0.3,0.3-0.5,0.6-0.8,0.8c-0.5,0.6-1,1.2-1.4,1.8c-0.4,0.6-0.7,1.3-1,2.1c-0.1,0.4-0.2,0.7-0.2,1 c0,0.3,0.1,0.4,0.4,0.4c0.3,0,0.7-0.1,1-0.2c0.3-0.2,0.6-0.4,0.9-0.6c0.6-0.5,1.2-1.1,1.7-1.6c0.6-0.6,1.2-1.1,1.8-1.6 c0.3-0.3,0.6-0.5,0.9-0.7C644.7,719.1,644.9,718.8,645.4,718.7z" fill="#141623"/></g><g id="change4_218"><path d="M636.2,725.3c0.2,0.2,0.2,0.3,0.2,0.5c0.1,0.1,0.1,0.3,0.2,0.4c0.2,0.2,0.4,0.4,0.7,0.4 c0.6,0.1,1.1-0.2,1.7-0.6c0.5-0.4,1.1-0.8,1.8-1c0.3-0.1,0.7-0.2,1-0.3l0.5-0.1c0.2,0,0.3-0.2,0.5,0c0,0.3-0.2,0.3-0.4,0.4 c-0.2,0.1-0.3,0.2-0.5,0.2l-0.9,0.4c-0.6,0.3-1.1,0.7-1.7,1c-0.6,0.4-1.4,0.6-2.2,0.5c-0.4-0.1-0.8-0.3-1-0.6 c-0.1-0.2-0.2-0.4-0.2-0.5C636.1,725.7,636,725.5,636.2,725.3z" fill="#141623"/></g><g id="change4_219"><path d="M634.8,728.1c0.1,0.2,0.1,0.3,0.2,0.4c0.1,0.1,0.2,0.2,0.3,0.3c0.3,0.2,0.5,0.3,0.8,0.5 c0.5,0.3,1.1,0.3,1.8,0.3c0.6,0,1.3,0.1,1.9,0.1l1,0l0.5,0c0.2,0,0.3-0.1,0.5,0.2c-0.1,0.3-0.3,0.2-0.5,0.3 c-0.2,0-0.3,0.1-0.5,0.1c-0.3,0.1-0.7,0.1-1,0.1c-0.7,0-1.3,0.1-2,0c-0.6-0.1-1.4-0.2-2-0.6c-0.3-0.2-0.6-0.4-0.8-0.6 c-0.1-0.1-0.3-0.3-0.4-0.5c0-0.1-0.1-0.2,0-0.3C634.6,728.2,634.7,728.1,634.8,728.1z" fill="#141623"/></g><g id="change4_220"><path d="M633.9,729.6c0.2,0.2,0.1,0.3,0.2,0.4c0,0.1,0.1,0.2,0.2,0.4c0.1,0.2,0.3,0.4,0.5,0.6c0.5,0.3,1,0.4,1.6,0.5 c0.6,0.1,1.2,0.2,1.7,0.2c0.3,0,0.6,0,0.9,0l0.4,0c0.2,0,0.3-0.1,0.5,0.1c-0.1,0.3-0.3,0.2-0.4,0.3c-0.2,0-0.3,0.1-0.5,0.1 c-0.3,0.1-0.6,0.1-0.9,0.1c-0.6,0-1.3,0-1.9-0.2c-0.6-0.2-1.3-0.4-1.8-0.8c-0.3-0.2-0.5-0.5-0.6-0.8c-0.1-0.2-0.1-0.3-0.1-0.5 C633.7,729.9,633.6,729.7,633.9,729.6z" fill="#141623"/></g><g id="change4_221"><path d="M630.4,720.7c0.2-0.2,0.3-0.2,0.5-0.2c0.1,0,0.3-0.1,0.4-0.1c0.3-0.1,0.6-0.2,0.8-0.4c0.5-0.3,1-0.7,1.4-1.2 c0.8-1,1.4-2.1,1.8-3.2l0,0c0-0.1,0.1-0.1,0.1-0.1c0.5-0.3,1-0.7,1.4-1c0.2-0.2,0.4-0.4,0.7-0.6c0.1-0.1,0.2-0.2,0.3-0.3 c0.1-0.1,0.2-0.2,0.4-0.2c0.1,0.2,0,0.4-0.1,0.5c-0.1,0.1-0.2,0.3-0.3,0.4c-0.2,0.3-0.4,0.5-0.6,0.7c-0.5,0.4-0.9,0.8-1.4,1.1 l0.1-0.2c-0.4,1.3-1.1,2.5-2,3.5c-0.5,0.5-1,0.9-1.6,1.2c-0.3,0.2-0.6,0.3-1,0.4c-0.2,0-0.3,0.1-0.5,0.1 C630.7,720.8,630.5,720.9,630.4,720.7z" fill="#141623"/></g><g id="change1_37"><path d="M562 737.2H584.7V802.1H562z" fill="#f1dbce" transform="rotate(-52.034 573.326 769.628)"/></g><g id="change1_38"><circle cx="547.8" cy="749.7" fill="#f1dbce" r="11.3"/></g><g id="change1_39"><circle cx="598.8" cy="789.6" fill="#f1dbce" r="11.3"/></g><g id="change1_40"><path d="M636.2,762.4L636.2,762.4c-5.8-9.7-9.7-20.3-11.5-31.4l-0.3-1.7l-35.3,54.5l19.4,11.8L636.2,762.4z" fill="#f1dbce"/></g><g id="change1_41"><circle cx="598.8" cy="789.6" fill="#f1dbce" r="11.3"/></g><g id="change5_38"><path d="M542.8,722.2h7h7c0.3,5.8,3.9,16.7,3.9,16.7h-11h-7.3C542.5,738.9,542.6,728,542.8,722.2z" fill="#fb8875"/></g><g id="change4_222"><path d="M559.9,735.9l-1.9-6.9l-12.5-9.4l-2.9,5.4c3.8,5.9,10,9.9,16.9,10.8C559.8,735.9,559.9,735.9,559.9,735.9z" fill="#141623" opacity=".2"/></g><g id="change5_39"><path d="M567.6,685.9c0,0,4.8,8.2,4.1,16.2c-0.6,8,1.7,27.2-9.9,27.2c-11.1,0-16-5.3-19.3-11.3 c-3.2-5.9-6.2-9.3-5.7-20.5C537.3,686.3,552.1,672,567.6,685.9z" fill="#fb8875"/></g><g id="change4_223"><path d="M567.5,683.1c0,0-3.6,15.4-8.8,18.7l-2.1,31.9c0,0-18.7,0.9-31.1-6c0,0,6.3-20.7,6.3-30.4s5-24.1,20.7-23.7 C568.2,674.2,567.5,683.1,567.5,683.1z" fill="#141623"/></g><g id="change4_224"><path d="M563.4,679.3c0,0,10.8-0.1,13.2,13.3c0,0-2.6,3.9-6.7,3.9l-2-7.4l0.6,7.4c0,0-3.4,1.5-8.6,0L563.4,679.3z" fill="#141623"/></g><g id="change5_40"><path d="M550,706c0,0-0.6-5.2-4.1-4.7c-3.5,0.6-3.7,5.4-2.4,8.3c1,2.3,2.1,3.7,4.3,3.9c1.2,0.1,2.2-0.8,2.2-2V706z" fill="#fb8875"/></g><g id="change4_225"><path d="M548.9,706.8c0,0-0.6-2.4-2.2-2.1c-1.6,0.3-1.7,2.4-1.1,3.8s1.6,2,3.3,1.7V706.8z" fill="#141623" opacity=".1"/></g><g id="change4_226"><ellipse cx="567.2" cy="704.3" fill="#141623" rx="1.3" ry="1.6"/></g><g id="change5_41"><ellipse cx="567.9" cy="703.8" fill="#fb8875" rx=".4" ry=".5"/></g><g id="change4_227"><path d="M567.1,700.8c-1.4,0.7-2.5,1.1-2.8,0.5c-0.3-0.6,0.5-1.7,1.9-2.3s2.7-0.7,3,0 C569.5,699.5,568.4,700.1,567.1,700.8z" fill="#141623"/></g><g id="change5_42"><path d="M571.4,705.2l3.4,6.5c0.3,1-0.3,2.1-1.4,2.3l-2.5,0.4" fill="#fb8875"/></g><g id="change3_48"><path d="M549.6,877.9L549.6,877.9c15.1,0,27.3-12.2,27.3-27.3v-26h-54.7v26C522.2,865.7,534.5,877.9,549.6,877.9z" fill="#fcc03e"/></g><g id="change5_43"><path d="M468.8,1078.2c0,0-4-8.2-4.7-14.2s6.5-18.8,6.5-18.8l-9.8-5.8l-7,8c0,0-5.3,10.8-4.1,16.7 c1.2,5.9,7.4,15.4,7.4,15.4L468.8,1078.2z" fill="#fb8875"/></g><g id="change4_228"><path d="M455.7,1045.1c0,0-7.6,0.8-12.8,10c-1,1.8,0.2,5-0.6,7.9c-1.2,4.2-2.4,9.5-3.4,11.7l2.9,1.7l6.7-11.3 l0.9,12.9c0.1,1.9,1.2,3.7,2.9,4.7l13.8,8.2c0,0,16.7,2.7,17.3,0c0.6-2.7-12.5-11.3-14.6-12.7s-5.5-1.6-5.5-1.6s-6.1-2-7.7-4.3 c-1.7-2.3-4-16.1-4-16.1S458.4,1049.6,455.7,1045.1z" fill="#141623"/></g><g id="change4_229"><path d="M505.3,941l33.5,9.2l34.1-93.8l-48-13.1v0c-7.6,24.4-13.1,49.3-16.5,74.6L505.3,941z" fill="#141623"/></g><g id="change4_230"><circle cx="522.2" cy="945.5" fill="#141623" r="17.4"/></g><g id="change4_231"><circle cx="549" cy="849.7" fill="#141623" r="24.9"/></g><g id="change4_232"><path d="M537.1,954.4l-29.9-17.8l-10.7,11.7c-17.8,19.5-33.2,41-46,64.1l-12.8,23.1l37.8,22.5L537.1,954.4z" fill="#141623"/></g><g id="change4_233"><circle cx="522.2" cy="945.5" fill="#141623" r="17.4"/></g><g id="change5_44"><path d="M636.9,1079.4c0,0-7.6-5.1-11.2-9.9c-3.6-4.8-3.9-19.5-3.9-19.5l-11.4-0.1l-2,10.4c0,0,0.9,12,4.9,16.5 c4,4.4,14.1,9.5,14.1,9.5L636.9,1079.4z" fill="#fb8875"/></g><g id="change4_234"><path d="M608.8,1057.4c0,0-6.2,4.5-6,15.1c0,2.1,2.7,4.2,3.4,7.1c1.1,4.2,2.8,9.4,2.9,11.8l3.4,0l0.1-13.1l7.3,10.6 c1.1,1.6,2.9,2.6,4.8,2.6l16.1,0.1c0,0,15.7-6.1,14.9-8.8c-0.8-2.6-16.4-3.4-19-3.5c-2.6-0.1-5.6,1.4-5.6,1.4s-6.3,1.3-8.9,0.2 c-2.6-1.1-11.6-11.9-11.6-11.9S613.5,1059.9,608.8,1057.4z" fill="#141623"/></g><g id="change4_235"><path d="M570.4,946.4l32.8-11.6l-25.7-96.5L530.7,855l0,0c7.7,24.3,17.4,47.9,29.1,70.6L570.4,946.4z" fill="#141623"/></g><g id="change4_236"><circle cx="586.8" cy="940.5" fill="#141623" r="17.4"/></g><g id="change4_237"><circle cx="554.1" cy="846.5" fill="#141623" r="24.9"/></g><g id="change4_238"><path d="M603.4,935.3l-33.2,10.3l1.5,15.8c2.6,26.3,8.2,52.1,16.7,77.1l8.6,25l42-13L603.4,935.3z" fill="#141623"/></g><g id="change4_239"><circle cx="586.8" cy="940.5" fill="#141623" r="17.4"/></g><g id="change1_42"><path d="M562,739.4c0,0,17,15,21.2,27.7c4.2,12.7-5.6,71.3-5.6,71.3s-29.3,8.8-55.3-13.8c0,0,11.7-36.9,8.3-51.8 c-3.4-14.9-0.5-24.2,4.5-31.4C540.2,734,547.4,734.7,562,739.4z" fill="#f1dbce"/></g><g id="change3_49"><path d="M565.8,859.1h-45.5c-2.6,0-4.7-2.1-4.7-4.7v-29.1c0-2.6,2.1-4.7,4.7-4.7h45.5c2.6,0,4.7,2.1,4.7,4.7v29.1 C570.6,857,568.4,859.1,565.8,859.1z" fill="#fcc03e"/></g><g id="change4_262"><path d="M518.9,831.6c0.1,1.3,0.2,2.6,0.2,3.8c0,0.3,0,0.7,0,0.9c0,0.3,0.1,0.5,0.2,0.8c0.2,0.5,0.6,0.9,1.1,1.2 c0.2,0.1,0.5,0.2,0.8,0.3c0.3,0.1,0.5,0,0.9,0l1.9,0l3.8,0l15.3-0.1l15.3,0l3.8,0l1.9,0c0.3,0,0.6,0,0.9,0c0.3,0,0.5-0.1,0.8-0.3 c0.5-0.2,0.9-0.7,1.1-1.2c0.1-0.2,0.2-0.5,0.2-0.8c0-0.3,0-0.6,0.1-0.9c0.1-1.3,0.2-2.6,0.3-3.8c0.1,1.3,0.2,2.6,0.3,3.8 c0,0.3,0,0.6,0,1c0,0.4-0.1,0.7-0.2,1.1c-0.2,0.7-0.7,1.3-1.4,1.7c-0.3,0.2-0.7,0.3-1,0.4c-0.4,0.1-0.7,0.1-1,0.1l-1.9,0l-3.8,0 l-15.3,0l-15.3-0.1l-3.8,0l-1.9,0c-0.3,0-0.7,0-1-0.1c-0.4-0.1-0.7-0.2-1-0.4c-0.6-0.4-1.1-1-1.4-1.6c-0.1-0.3-0.2-0.7-0.2-1.1 c0-0.4,0-0.6,0-1c0-1.3,0.1-2.6,0.2-3.8H518.9z" fill="#141623"/></g><g id="change4_240"><circle cx="543.1" cy="835.4" fill="#141623" r="1.4"/></g><g id="change4_241"><path d="M569,818.2c-1.2-13.4-6.4-62.6-19-82c0,0-4.1-0.6-5.8-0.3c0,0,6.3-3.6,8.5,0c2.2,3.6,2.2,3.6,2.2,3.6 s14.6,33.9,17.5,79.2c0.2,2.9-0.6,5.7-2.2,8.1l0,0l-0.3-1.3C569.6,823.1,569.2,820.7,569,818.2z" fill="#141623"/></g><g id="change4_242"><path d="M568.6,717.5c-1.6,0.3-3.3,0.1-4.9-0.4c-0.8-0.3-1.5-0.7-2.2-1.2c-0.7-0.5-1.2-1.1-1.7-1.8 c-0.1-0.1,0-0.2,0-0.2c0.1,0,0.2,0,0.2,0l0,0c0.6,0.5,1.1,1.1,1.8,1.5c0.7,0.4,1.3,0.8,2.1,1c0.7,0.3,1.5,0.5,2.3,0.6 c0.8,0.1,1.6,0.2,2.4,0.2l0,0c0.1,0,0.1,0.1,0.1,0.1C568.7,717.4,568.7,717.5,568.6,717.5z" fill="#141623"/></g><g id="change4_243"><path d="M562.8,717.9c0.5,0.2,0.9,0.3,1.4,0.4c0.5,0.1,1,0.1,1.5,0.3c0.1,0,0.1,0.1,0.1,0.2c0,0.1-0.1,0.1-0.1,0.1 c-0.5,0.2-1.1,0.2-1.6,0.1c-0.6-0.1-1.1-0.4-1.4-0.9c0-0.1,0-0.2,0.1-0.2C562.8,717.9,562.8,717.9,562.8,717.9L562.8,717.9z" fill="#141623"/></g><g id="change4_244"><path d="M545.4,705.7c0.4-0.4,1-0.4,1.5-0.3c0.5,0.1,0.9,0.5,1.2,0.9c0.5,0.8,0.8,1.7,0.7,2.7c0,0.1-0.1,0.2-0.2,0.1 c-0.1,0-0.1-0.1-0.1-0.1c-0.2-0.8-0.5-1.6-1-2.3c-0.2-0.3-0.5-0.6-0.8-0.7c-0.3-0.2-0.7-0.2-1.1-0.1l0,0c-0.1,0-0.2,0-0.2-0.1 C545.4,705.8,545.4,705.8,545.4,705.7z" fill="#141623"/></g><g id="change4_245"><path d="M545.7,708.5c-0.2-0.3-0.2-0.6-0.2-1c0-0.4,0.2-0.7,0.4-1c0.3-0.3,0.7-0.5,1.1-0.4c0.4,0,0.8,0.3,0.9,0.6 c0,0.1,0,0.2-0.1,0.2c-0.1,0-0.1,0-0.2,0l0,0c-0.2-0.1-0.4-0.2-0.6-0.2c-0.2,0-0.4,0.1-0.5,0.3c-0.3,0.3-0.4,0.8-0.5,1.4 c0,0.1-0.1,0.1-0.2,0.1C545.8,708.5,545.8,708.5,545.7,708.5z" fill="#141623"/></g><g id="change5_45"><path d="M546.8,871.6c0,0-2.3,18.4-3.2,20.5c-0.9,2.1-1,2.3-1,2.3s-6.8,7.3-7.5,8.2s-3.5,0.8-4.4,1.9 c-1,1.1-2.2,0.9-2.5-0.2c-0.3-1.1,1.1-3.6,1.1-3.6s-1.1-1.2-1.1-2.4s1.5-2.9,1.5-3.8s4.3-6.3,4.4-7.4c0-1.1-4.9-4.9-0.7-13.1 c4.2-8.2,4.8-8.9,4.8-8.9L546.8,871.6z" fill="#fb8875"/></g><g id="change4_246"><path d="M539,889c0.1,0.4-0.1,0.7-0.2,1c-0.1,0.3-0.3,0.6-0.4,0.9c-0.3,0.6-0.6,1.2-0.9,1.8c-0.3,0.6-0.6,1.2-1,1.8 c-0.4,0.6-0.8,1.1-1.2,1.7c-0.8,1.1-1.7,2.1-2.6,3.1c-0.5,0.5-0.9,1-1.5,1.5c-0.3,0.2-0.7,0.4-1.1,0.4c-0.4,0-0.9,0-1-0.5 c1.3,0.5,2.1-0.8,3-1.8c0.8-1,1.6-2.1,2.5-3.2c0.4-0.5,0.9-1,1.2-1.6c0.4-0.5,0.7-1.1,1.1-1.7c0.3-0.6,0.6-1.2,0.9-1.8l0.5-0.9 C538.6,889.6,538.7,889.2,539,889z" fill="#141623"/></g><g id="change4_247"><path d="M531.2,904.1c0-0.4,0.3-0.6,0.5-0.9c0.2-0.3,0.4-0.5,0.6-0.8l1.3-1.5l2.5-3c0.9-1,1.7-1.9,2.5-3l1.1-1.6 l0.6-0.8c0.2-0.2,0.3-0.6,0.7-0.7c0.1,0.4-0.2,0.6-0.3,1c-0.2,0.3-0.3,0.6-0.5,0.9c-0.3,0.6-0.7,1.1-1.1,1.7 c-0.7,1.1-1.6,2.2-2.5,3.1l-2.7,2.9l-1.3,1.4c-0.2,0.2-0.4,0.5-0.7,0.7C531.8,903.7,531.6,904,531.2,904.1z" fill="#141623"/></g><g id="change4_248"><path d="M535.1,885c0.2,0.2,0.1,0.2,0.1,0.3c0,0.1,0,0.1-0.1,0.1l-0.1,0.3c-0.1,0.2-0.1,0.4-0.2,0.6 c-0.1,0.2-0.2,0.4-0.2,0.6c0,0.1-0.1,0.2-0.1,0.3c0,0,0,0.1-0.1,0.1c-0.1,0,0.1,0.1-0.2,0.1c-0.3-0.1-0.2-0.1-0.2-0.2 c0-0.1,0-0.1,0-0.2c0-0.1,0-0.2,0-0.4c0-0.2,0.1-0.5,0.2-0.7c0.1-0.2,0.3-0.4,0.4-0.6c0.1-0.1,0.1-0.2,0.2-0.3 c0,0,0.1-0.1,0.1-0.1C534.9,885,534.9,884.9,535.1,885z" fill="#141623"/></g><g id="change4_249"><path d="M534,883c0.1,0.2,0,0.2,0,0.3c0,0.1-0.1,0.1-0.1,0.2c-0.1,0.1-0.1,0.2-0.1,0.4c0,0.3,0,0.5,0.1,0.8 c0.1,0.3,0.1,0.5,0.2,0.8l0.1,0.4c0,0.1,0,0.1,0,0.2c0,0.1,0.1,0.1-0.1,0.3c-0.3,0.1-0.2,0-0.3-0.1c-0.1-0.1-0.1-0.1-0.2-0.2 c-0.1-0.1-0.2-0.3-0.2-0.4c-0.1-0.3-0.2-0.6-0.3-0.9c0-0.3,0-0.7,0.1-1c0.1-0.2,0.1-0.3,0.2-0.5c0-0.1,0.1-0.1,0.2-0.2 C533.8,883,533.8,882.8,534,883z" fill="#141623"/></g><g id="change1_43"><path d="M521.8 747.7H544.5V812.6H521.8z" fill="#f1dbce" transform="rotate(17.955 533.082 780.217)"/></g><g id="change1_44"><circle cx="543.1" cy="749.3" fill="#f1dbce" r="11.3"/></g><g id="change1_45"><circle cx="523.1" cy="810.9" fill="#f1dbce" r="11.3"/></g><g id="change1_46"><path d="M519.9 876.5L546.8 871.6 534.1 808 512.1 813.6z" fill="#f1dbce"/></g><g id="change1_47"><circle cx="523.1" cy="810.9" fill="#f1dbce" r="11.3"/></g><g id="change4_250"><path d="M543.1,741.7c2.3,0.4,4.3,1.5,6.2,2.8c1.9,1.3,3.6,2.9,4.8,4.8c0.6,1,1.1,2,1.5,3.1c0.4,1.1,0.6,2.2,0.7,3.4 c0.2,2.3-0.1,4.6-0.7,6.8l0,0l0,0l-9.4,22.2l-4.8,11.1l-4.8,11.1l0-0.2l1.6,14.4l0.8,7.2l0.4,3.6c0.1,1.2,0.3,2.4,0.2,3.6 c-0.4-1.2-0.5-2.4-0.7-3.6l-0.5-3.6l-0.9-7.2l-1.8-14.4l0-0.1l0-0.1l4.7-11.1l4.8-11.1l9.6-22.1l0,0c0.6-2.1,0.9-4.3,0.7-6.5 c-0.1-1.1-0.3-2.2-0.7-3.2c-0.4-1-0.8-2-1.4-3c-1.2-1.9-2.8-3.4-4.6-4.7C547.1,743.6,545.1,742.7,543.1,741.7z" fill="#141623"/></g><g id="change4_251"><path d="M580.1,760.6c0.6,0.5,0.7,1.1,1,1.7c0.3,0.6,0.5,1.2,0.7,1.9c0.5,1.3,0.9,2.5,1.3,3.8 c0.8,2.6,1.4,5.2,1.5,7.9c0.1,1.4,0,2.7-0.1,4l-0.2,4l-0.3,4l-0.2,2l-0.1,1c0,0.3-0.1,0.7-0.3,1c-0.2-0.3-0.2-0.7-0.2-1l0-1l0-2 l0.1-4l0.1-4c0-1.3,0.1-2.7,0.1-4c-0.1-2.6-0.6-5.2-1.2-7.8c-0.3-1.3-0.7-2.5-1.2-3.8l-0.7-1.9 C580.4,761.9,580.1,761.3,580.1,760.6z" fill="#141623"/></g><g id="change4_252"><path d="M596.1,772.7c0.3,0.2,0.2,0.3,0.2,0.4c0,0.1,0,0.2,0,0.3c0,0.2-0.1,0.4-0.1,0.6c0,0.4,0,0.8,0.1,1.2 c0.1,0.4,0.1,0.7,0.2,1.1c0.1,0.2,0.1,0.3,0.2,0.5c0,0.1,0.1,0.2,0.1,0.3l0.1,0.1c0,0,0,0.1-0.1,0.3c-0.2,0.1-0.2,0.1-0.3,0.1 l-0.2-0.1c-0.1-0.1-0.2-0.1-0.3-0.2c-0.2-0.2-0.3-0.4-0.4-0.6c-0.2-0.4-0.4-0.9-0.4-1.4c0-0.5,0.1-0.9,0.2-1.4 c0.1-0.2,0.1-0.4,0.2-0.7c0-0.1,0.1-0.2,0.1-0.3C595.9,772.8,595.8,772.7,596.1,772.7z" fill="#141623"/></g><g id="change4_253"><path d="M596.1,772.7c0.1,0.3-0.1,0.3-0.1,0.4c-0.1,0.1-0.1,0.1-0.2,0.2c-0.1,0.1-0.2,0.2-0.3,0.4 c-0.2,0.3-0.3,0.6-0.4,0.9c-0.1,0.3-0.2,0.6-0.2,1c0,0.2,0,0.3,0,0.5c0,0.1,0,0.2,0,0.3l0,0.1c0,0,0,0.1-0.2,0.2 c-0.2,0-0.3,0-0.3,0l-0.1-0.1c-0.1-0.1-0.1-0.2-0.2-0.3c-0.1-0.2-0.1-0.4-0.2-0.6c-0.1-0.4,0-0.9,0.1-1.3c0.2-0.4,0.4-0.8,0.8-1.1 c0.2-0.2,0.3-0.3,0.5-0.4c0.1-0.1,0.2-0.1,0.3-0.2C595.9,772.6,595.9,772.4,596.1,772.7z" fill="#141623"/></g><g id="change4_254"><path d="M528.1,807.2c0.3-0.2,0.4-0.1,0.6-0.1c0.2,0,0.3,0.1,0.5,0.1c0.3,0.1,0.7,0.2,1,0.2c0.7,0.1,1.3,0.1,2,0 c0.7,0,1.3-0.1,1.9-0.3c0.3-0.1,0.6-0.2,0.9-0.3c0.2-0.1,0.3-0.1,0.5-0.2l0.2-0.1c0.1,0,0.2,0,0.4,0.1c0,0.2,0,0.3-0.1,0.4 l-0.2,0.2c-0.1,0.1-0.3,0.2-0.4,0.3c-0.3,0.2-0.6,0.4-1,0.5c-0.7,0.3-1.4,0.4-2.2,0.4c-0.7,0-1.5-0.1-2.2-0.3 c-0.4-0.1-0.7-0.2-1-0.3c-0.2-0.1-0.3-0.1-0.5-0.2C528.4,807.6,528.2,807.6,528.1,807.2z" fill="#141623"/></g><g id="change4_255"><path d="M621.7,733.5c0.4,0.7,0.3,1.4,0.5,2.1l0.3,2.1c0.2,1.4,0.5,2.8,0.9,4.2c0.7,2.7,1.6,5.4,2.7,8.1 c0.5,1.3,1.1,2.6,1.7,3.9c0.7,1.3,1.2,2.5,2,3.7c0.4,0.6,0.7,1.2,1.1,1.8l1.2,1.8c0.4,0.6,0.8,1.2,1.2,1.7l0.6,0.9 c0.2,0.3,0.4,0.6,0.5,1c-0.4-0.1-0.6-0.4-0.9-0.7l-0.7-0.8c-0.5-0.5-0.9-1.1-1.4-1.7l-1.3-1.7c-0.4-0.6-0.8-1.2-1.2-1.8 c-0.8-1.2-1.4-2.5-2.1-3.8c-0.6-1.3-1.2-2.6-1.7-4c-1-2.7-1.9-5.4-2.5-8.3c-0.3-1.4-0.6-2.8-0.8-4.2c-0.1-0.7-0.2-1.4-0.2-2.1 C621.6,734.9,621.4,734.2,621.7,733.5z" fill="#141623"/></g><g id="change1_48"><path d="M649.2,664.4l-7.8,30.4l-7.9-30.9c-23.7-4.4-41.6-25.2-41.6-50.2c0-28.2,22.9-51.1,51.1-51.1 s51.1,22.9,51.1,51.1C694,639.8,674.4,661.3,649.2,664.4z" fill="#f1dbce"/></g><g id="change4_256"><ellipse cx="642.3" cy="647.8" fill="#141623" opacity=".3" rx="24.7" ry="3.1"/></g><g id="change2_46"><circle cx="642.9" cy="612.6" fill="#fd871b" r="37.1"/></g><g id="change3_50"><circle cx="642.9" cy="612.6" fill="#fcc03e" r="28.4"/></g><g id="change4_257"><path d="M657.8,594.3l-9.9,18h6.3v4.3h-7.5v3.2h7.5v4.3h-7.5v10.7h-8.1V624h-7.3v-4.3h7.3v-3.2h-7.3v-4.3h6.2l-9.5-18 v-1.9h9v1.9h-0.1c4.3,10.1,5.4,12.1,6.1,14h0.1c0.5-1.4,1.9-4.3,6.1-14h-0.4v-1.9h9V594.3z" fill="#141623" opacity=".1"/></g><g id="change2_47"><path d="M657.8,592.4h-8.7c-4.3,9.8-5.6,12.6-6.1,14H643c-0.7-2-1.8-3.9-6.1-14h-9l9.5,18h-6.2v4.3h7.3v3.2h-7.3v4.3 h7.3v10.7h8.1v-10.7h7.5v-4.3h-7.5v-3.2h7.5v-4.3h-6.3L657.8,592.4z" fill="#fd871b"/></g><g id="change2_48"><path d="M250.8,985c-11-20.5-32.6-42.6-42.5-52.3c-3.4-3.3-5.2-7.8-5.1-12.5l0,0c0.2-7.5,20.7-15,16.1-24.2 c-4.6-9.2-12.3-2.7-17.6-11.9c-5.4-9.2-17.1-6.5-17.1-6.5s-11.7-2.7-17.1,6.5c-5.4,9.2-13,2.7-17.6,11.9 c-4.6,9.2,15.9,16.7,16.1,24.2l0,0c0.1,4.7-1.7,9.2-5.1,12.5c-10,9.7-31.5,31.8-42.5,52.3c-18,33.3-5.4,60.8,3.8,74.4 c3.9,5.7,10,9.1,16.6,9.1h45.9h45.9c6.6,0,12.7-3.4,16.6-9.1C256.2,1045.8,268.7,1018.3,250.8,985z" fill="#fd871b"/></g><g id="change4_258"><path d="M217.6,1044.8c-24-11.8-39.9,9.2-71.6,0c-31.7-9.2-17.8-75.3-17.8-75.3c-3.7,5.1-7.2,10.3-9.9,15.5 c-18,33.3-5.4,60.8,3.8,74.4c3.9,5.7,10,9.1,16.6,9.1h45.9h45.9c6.6,0,12.7-3.4,16.6-9.1c3-4.5,6.5-10.5,9-17.8l0,0 C256,1041.5,241.6,1056.6,217.6,1044.8z" fill="#141623" opacity=".1"/></g><g id="change4_259"><path d="M203.9,925.2h-38.7c-1.7,0-3.1-1.4-3.1-3.1l0,0c0-1.7,1.4-3.1,3.1-3.1h38.7c1.7,0,3.1,1.4,3.1,3.1l0,0 C207,923.8,205.6,925.2,203.9,925.2z" fill="#141623"/></g><g id="change4_260"><path d="M185.7 946.6L181.2 946.6 183.8 921.3 188.4 921.3z" fill="#141623"/></g><g id="change4_261"><path d="M192.8 959.1L197.4 959.1 194.7 921.3 190.2 921.3z" fill="#141623"/></g><g id="change3_51"><path d="M208.5,968.1h-13.7c-6.8,15.5-8.9,20-9.7,22.3h-0.1c-1.1-3.1-2.8-6.2-9.7-22.3H161l15.1,28.5h-9.8v6.8H178 v5.1h-11.6v6.7H178v17h12.8v-17h11.9v-6.7h-11.9v-5.1h11.9v-6.8h-9.9L208.5,968.1z" fill="#fcc03e"/></g></g></g></svg>