<?xml version="1.0" encoding="UTF-8"?><svg xmlns="http://www.w3.org/2000/svg" xmlns:xlink="http://www.w3.org/1999/xlink" height="226.8" preserveAspectRatio="xMidYMid meet" version="1.1" viewBox="107.1 99.2 210.6 226.8" width="210.6" zoomAndPan="magnify">
 <g id="surface1">
  <g id="change1_1"><path d="m316.64 120.21c-0.94-1.03-2.97-0.83-2.97-0.83h-49.46l-0.79-0.02c-36.71-0.86-29.47-20.114-49.1-20.145-21.72-0.035-18.72 20.645-39.23 21.135l-14.21 0.64c-1.92 0.1-3.87 0.1-5.89 0h-40.68s-3.86-0.43-5.55 1.56c-1.62 1.91-1.11 3.89-1.11 5.71v112.35h0.06c-0.03 0.85-0.06 1.71-0.06 2.58 0 30.33 84.85 82.79 104.99 82.79 18.77 0 104.98-52.46 104.98-82.79 0-0.87-0.02-1.73-0.06-2.58h0.06v-116.53s0.08-2.7-0.98-3.87" fill="#18212b"/></g>
  <g id="change2_1"><path d="m294.2 140.14c-0.74-0.81-2.33-0.65-2.33-0.65h-38.8l-0.61-0.02c-28.79-0.67-23.11-15.77-38.51-15.79-17.04-0.04-14.68 16.19-30.77 16.57l-11.15 0.5c-1.49 0.08-3.03 0.08-4.61 0h-31.91s-3.02-0.34-4.35 1.23c-1.27 1.5-0.87 3.05-0.87 4.47v88.12h0.05c-0.03 0.67-0.05 1.34-0.05 2.02 0 23.79 66.55 64.94 82.34 64.94 14.72 0 82.34-41.15 82.34-64.94 0-0.68-0.02-1.35-0.05-2.02h0.05v-91.39s0.06-2.12-0.77-3.04" fill="#47c1c4"/></g>
  <g id="change3_1"><path d="m245.11 156.05c-13.68 13.82-24.91 29.68-33.55 47.08-4.69 9.46-8.68 19.23-12.44 29.1-3.72-5.84-7.6-11.58-11.44-17.33-3.62-5.43-10.52-7.76-16.41-4.3-5.39 3.15-7.95 10.97-4.31 16.42 8.59 12.87 17.43 25.66 24.03 39.7 1.76 3.73 6.43 5.94 10.37 5.94 5.69 0 9.69-3.73 11.57-8.8 12.25-33.06 23.73-65.16 49.15-90.84 10.9-11-6.07-27.98-16.97-16.97" fill="#eceaf7"/></g>
 </g>
</svg>