<?xml version="1.0" encoding="UTF-8"?><svg xmlns="http://www.w3.org/2000/svg" xmlns:xlink="http://www.w3.org/1999/xlink" height="34.1" preserveAspectRatio="xMidYMid meet" version="1.0" viewBox="0.0 1.9 36.0 34.1" width="36.0" zoomAndPan="magnify"><g id="change1_1"><path d="M5.942 33c-.137-4.657-.506-8-.942-8-.435 0-.804 3.343-.941 8h1.883z" fill="#FFCC4D"/></g><g id="change2_1"><path d="M16 20.423C16 25.468 13.762 27 11 27c-2.761 0-5-1.532-5-6.577C6 15.379 10 8 11 8s5 7.379 5 12.423z" fill="#A6D388"/></g><g id="change3_1"><path d="M10 19.731C10 25.306 7.762 27 5 27c-2.761 0-5-1.694-5-7.269C0 14.154 4 6 5 6s5 8.154 5 13.731z" fill="#77B255"/></g><g id="change4_1"><path d="M8 16L21 3l13 13v16H8z" fill="#FFE8B6"/></g><g id="change5_1"><path d="M21 16h1v16h-1z" fill="#FFF"/></g><g id="change1_2"><path d="M8 16h1v16H8zm25 0h1v16h-1z" fill="#FFCC4D"/></g><g id="change6_1"><path d="M34 17c-.256 0-.512-.098-.707-.293L21 4.414 8.707 16.707c-.391.391-1.023.391-1.414 0s-.391-1.023 0-1.414l13-13c.391-.391 1.023-.391 1.414 0l13 13c.391.391.391 1.023 0 1.414-.195.195-.451.293-.707.293z" fill="#66757F"/></g><g id="change6_2"><path d="M21 17c-.256 0-.512-.098-.707-.293-.391-.391-.391-1.023 0-1.414l6.5-6.5c.391-.391 1.023-.391 1.414 0s.391 1.023 0 1.414l-6.5 6.5c-.195.195-.451.293-.707.293z" fill="#66757F"/></g><g id="change7_1"><path d="M13 26h4v6h-4z" fill="#C1694F"/></g><g id="change8_1"><path d="M26 26h3v4h-3z" fill="#55ACEE"/></g><g id="change8_2"><path d="M25 26h2v4h-2zm3 0h2v4h-2zm-15-9h4v4h-4zm12 0h5v4h-5z" fill="#55ACEE"/></g><g id="change9_1"><path d="M36 34c0 1.104-.896 2-2 2H2c-1.104 0-2-.896-2-2s.896-2 2-2h32c1.104 0 2 .896 2 2z" fill="#5C913B"/></g><g id="change5_2"><path d="M13 32h4v4h-4z" fill="#FFF"/></g></svg>