<?xml version="1.0" encoding="UTF-8"?><svg xmlns="http://www.w3.org/2000/svg" xmlns:xlink="http://www.w3.org/1999/xlink" height="464.0" preserveAspectRatio="xMidYMid meet" version="1.0" viewBox="24.0 24.0 464.0 464.0" width="464.0" zoomAndPan="magnify"><g><g id="change1_1"><circle cx="376" cy="376" fill="#df8401" r="112"/></g><g id="change2_1"><circle cx="136" cy="136" fill="#3c323d" r="112"/></g><g id="change3_1"><path d="M349.38,67.51l10.13-5.38a16,16,0,1,0-15-28.26l-45.14,24c-8,4-11,14.89-6.17,22.43l29.14,48a16,16,0,1,0,27.36-16.6l-7.21-11.89C394.22,127.2,416,164.81,416,224a16,16,0,0,0,32,0C448,149.8,417.27,100.72,349.38,67.51Z" fill="#fbab2c"/></g><g id="change3_2"><path d="M218.82,431.7l-29.14-48a16,16,0,1,0-27.36,16.6l7.21,11.89C117.78,384.8,96,347.19,96,288a16,16,0,0,0-32,0c0,74.2,30.73,123.28,98.62,156.49l-10.13,5.38a16,16,0,0,0,15,28.26l45.14-24C220.63,450.1,223.61,439.24,218.82,431.7Z" fill="#fbab2c"/></g><g id="change4_1"><circle cx="136" cy="136" fill="#d7e6ef" r="80"/></g><g id="change5_1"><circle cx="376" cy="376" fill="#feb944" r="80"/></g><g id="change1_2"><path d="M376.48,366.44c-5.29.25-10.06-3.5-10-8.89a8.89,8.89,0,0,1,17.77,0,8,8,0,0,0,16,0,24.86,24.86,0,0,0-16.33-23.27V328a8,8,0,0,0-16,0v5.94a24.83,24.83,0,0,0-17.44,23.61c0,13.72,11.18,25.39,24.89,24.89,7.42-.28,13.92,5.25,13.89,12.74a12.75,12.75,0,0,1-25.49,0,8,8,0,0,0-16,0,28.72,28.72,0,0,0,21.62,27.74v7a8,8,0,0,0,16,0v-7.51a28.7,28.7,0,0,0,19.87-27.2C405.23,379.33,392.32,365.68,376.48,366.44Z" fill="#df8401"/></g><g id="change2_2"><path d="M136,80a8,8,0,0,0-8,8v44.69l-21.66,21.65a8,8,0,0,0,11.32,11.32l24-24A8,8,0,0,0,144,136V88A8,8,0,0,0,136,80Z" fill="#3c323d"/></g></g></svg>